<?xml version="1.0" encoding="utf-8"?>
<!-- Generator: Adobe Illustrator 26.5.3, SVG Export Plug-In . SVG Version: 6.00 Build 0)  -->
<svg version="1.1" id="Layer_1" xmlns="http://www.w3.org/2000/svg" xmlns:xlink="http://www.w3.org/1999/xlink" x="0px" y="0px"
	 width="1233px" height="503px" viewBox="0 0 1233 503" style="enable-background:new 0 0 1233 503;" xml:space="preserve">
<style type="text/css">
	.st0{fill:#FFFFFF;}
	.st1{fill:none;}
	.st2{enable-background:new    ;}
	.st3{fill:#FFDD01;}
	.st4{fill:#FBAD35;}
	.st5{fill:#FBAD35;enable-background:new    ;}
	.st6{fill:#FFDD01;enable-background:new    ;}
	.st7{fill:none;stroke:#FBAD35;stroke-width:4;stroke-miterlimit:10;}
	.st8{fill:#EFF0F5;}
	.st9{fill:#18375E;}
	.st10{fill:#0F0F0F;}
	.st11{fill:#F2DCDB;}
</style>
<g>
	<rect x="-10.7" y="-11.7" class="st0" width="1273.8" height="548.9"/>
</g>
<rect x="0.5" y="0.5" pointer-events="all" class="st1" width="280" height="30"/>
<g transform="translate(-0.5 -0.5)">
	<g class="st2">
		<path d="M49.6,10.9h3.8c1.6,0,2.4,1,2.4,2.2c0,0.6-0.2,1.4-1.2,1.8c0.6,0.2,1.6,0.6,1.6,2.1c0,1.4-1,2.5-2.9,2.5h-3.7V10.9z
			 M50.7,14.5h2.1c1.1,0,1.8-0.3,1.8-1.4c0-0.8-0.5-1.3-1.8-1.3h-2.1V14.5z M50.7,18.5h2.5c1.2,0,1.8-0.6,1.8-1.6
			c0-1.2-1.1-1.5-2-1.5h-2.3V18.5z"/>
		<path d="M57.4,15.1c0-1.5,1-2.1,2.6-2.1c0.5,0,2.3,0.1,2.3,1.8v3.6c0,0.3,0.1,0.4,0.3,0.4c0.1,0,0.2,0,0.3,0v0.8
			c-0.2,0-0.3,0.1-0.6,0.1c-0.9,0-1.1-0.5-1.1-1c-0.4,0.4-1,1-2.3,1c-1.2,0-2-0.7-2-1.8c0-0.5,0.2-1.8,1.9-2l1.7-0.2
			c0.3,0,0.6-0.1,0.6-0.7c0-0.7-0.5-1-1.5-1c-1.2,0-1.4,0.7-1.4,1.2H57.4z M61.3,16.3c-0.2,0.1-0.4,0.2-1.7,0.4
			c-0.5,0.1-1.3,0.2-1.3,1c0,0.7,0.3,1.1,1.1,1.1c1,0,1.9-0.6,1.9-1.5V16.3z"/>
		<path d="M67.7,15c0-0.4-0.2-1.1-1.5-1.1c-0.3,0-1.2,0.1-1.2,0.9c0,0.5,0.3,0.6,1.1,0.8l1.1,0.3c1.3,0.3,1.8,0.8,1.8,1.7
			c0,1.3-1.1,2.1-2.5,2.1c-2.5,0-2.7-1.4-2.7-2.2h1c0,0.5,0.2,1.3,1.7,1.3c0.8,0,1.4-0.3,1.4-1c0-0.5-0.3-0.7-1.2-0.9l-1.2-0.3
			c-0.9-0.2-1.5-0.7-1.5-1.5c0-1.4,1.1-2,2.4-2c2.2,0,2.4,1.7,2.4,2H67.7z"/>
		<path d="M70.2,12.1v-1.2h1.1v1.2H70.2z M71.2,19.5h-1.1v-6.3h1.1V19.5z"/>
		<path d="M78.1,17.5c0,0.3-0.3,1.2-1.1,1.7c-0.3,0.2-0.7,0.4-1.7,0.4c-1.8,0-2.8-1.3-2.8-3.1c0-1.9,0.9-3.5,3-3.5
			c1.8,0,2.7,1.4,2.7,3.7h-4.6c0,1.3,0.6,2.1,1.8,2.1c1,0,1.6-0.8,1.6-1.2H78.1z M77.1,15.9c-0.1-1-0.5-1.9-1.8-1.9
			c-1,0-1.7,0.9-1.7,1.9H77.1z"/>
		<path d="M80.7,19.5h-1.1v-6.3h1v1h0c0.4-0.7,1-1.2,1.8-1.2c0.1,0,0.2,0,0.3,0v1.1h-0.4c-1,0-1.6,0.8-1.6,1.7V19.5z"/>
		<path d="M88.8,17.5c0,0.3-0.3,1.2-1.1,1.7c-0.3,0.2-0.7,0.4-1.7,0.4c-1.8,0-2.8-1.3-2.8-3.1c0-1.9,0.9-3.5,3-3.5
			c1.8,0,2.7,1.4,2.7,3.7h-4.6c0,1.3,0.6,2.1,1.8,2.1c1,0,1.6-0.8,1.6-1.2H88.8z M87.8,15.9c-0.1-1-0.5-1.9-1.8-1.9
			c-1,0-1.7,0.9-1.7,1.9H87.8z"/>
		<path d="M95.3,19.5h-1.1v-3.9c0-1.1-0.3-1.6-1.3-1.6c-0.6,0-1.7,0.4-1.7,2.1v3.4h-1.1v-6.3h1v0.9h0c0.2-0.3,0.8-1.1,1.9-1.1
			c1,0,2.2,0.4,2.2,2.2V19.5z"/>
		<path d="M102,19.5h-1v-0.9h0c-0.5,0.9-1.2,1-1.8,1c-2.1,0-2.8-2-2.8-3.5c0-1.8,0.9-3.1,2.6-3.1c1.1,0,1.6,0.7,1.9,1.1l0-0.1v-3.1
			h1.1V19.5z M99.2,18.8c0.7,0,1.7-0.4,1.7-2.1c0-1-0.2-2.7-1.7-2.7c-1.6,0-1.7,1.5-1.7,2.4C97.6,17.7,98.1,18.8,99.2,18.8z"/>
		<path d="M106.8,15.1c0-1.5,1-2.1,2.6-2.1c0.5,0,2.3,0.1,2.3,1.8v3.6c0,0.3,0.1,0.4,0.3,0.4c0.1,0,0.2,0,0.3,0v0.8
			c-0.2,0-0.3,0.1-0.6,0.1c-0.9,0-1.1-0.5-1.1-1c-0.4,0.4-1,1-2.3,1c-1.2,0-2-0.7-2-1.8c0-0.5,0.2-1.8,1.9-2l1.7-0.2
			c0.3,0,0.6-0.1,0.6-0.7c0-0.7-0.5-1-1.5-1c-1.2,0-1.4,0.7-1.4,1.2H106.8z M110.7,16.3c-0.2,0.1-0.4,0.2-1.7,0.4
			c-0.5,0.1-1.3,0.2-1.3,1c0,0.7,0.3,1.1,1.1,1.1c1,0,1.9-0.6,1.9-1.5V16.3z"/>
		<path d="M117.6,19.5v-0.9l0,0c-0.4,0.7-1,1.1-2,1.1c-0.9,0-2-0.4-2-1.9v-4.5h1.1v4.2c0,1,0.5,1.4,1.2,1.4c1.3,0,1.7-1.2,1.7-2.1
			v-3.5h1.1v6.3H117.6z"/>
		<path d="M121.5,14.1v5.4h-1.1v-5.4h-0.9v-0.9h0.9v-1.1c0-0.9,0.6-1.4,1.6-1.4c0.2,0,0.3,0,0.5,0v0.9c-0.1,0-0.3,0-0.4,0
			c-0.5,0-0.6,0.2-0.6,0.7v0.8h1.1v0.9H121.5z"/>
		<path d="M128.3,19.5h-1.2v-8.6h6v1h-4.8v2.6h4.2v1h-4.2V19.5z"/>
		<path d="M138.3,19.5v-0.9l0,0c-0.4,0.7-1,1.1-2,1.1c-0.9,0-2-0.4-2-1.9v-4.5h1.1v4.2c0,1,0.5,1.4,1.2,1.4c1.3,0,1.7-1.2,1.7-2.1
			v-3.5h1.1v6.3H138.3z"/>
		<path d="M146,19.5h-1.1v-3.9c0-1.1-0.3-1.6-1.3-1.6c-0.6,0-1.7,0.4-1.7,2.1v3.4h-1.1v-6.3h1v0.9h0c0.2-0.3,0.8-1.1,1.9-1.1
			c1,0,2.2,0.4,2.2,2.2V19.5z"/>
		<path d="M152.8,19.5h-1.4l-2-3.2l-0.9,0.8v2.4h-1v-8.6h1v5l2.7-2.7h1.3l-2.4,2.3L152.8,19.5z"/>
		<path d="M154.8,14.1v4.1c0,0.5,0.4,0.5,0.6,0.5h0.4v0.8c-0.4,0-0.7,0.1-0.8,0.1c-1,0-1.3-0.6-1.3-1.3v-4.1h-0.9v-0.9h0.9v-1.8h1.1
			v1.8h1v0.9H154.8z"/>
		<path d="M156.9,12.1v-1.2h1.1v1.2H156.9z M157.9,19.5h-1.1v-6.3h1.1V19.5z"/>
		<path d="M162.1,13c2,0,2.9,1.7,2.9,3.3s-0.9,3.3-2.9,3.3s-2.9-1.7-2.9-3.3S160.1,13,162.1,13z M162.1,18.8c1.5,0,1.8-1.6,1.8-2.4
			c0-0.8-0.3-2.4-1.8-2.4c-1.5,0-1.8,1.6-1.8,2.4C160.3,17.2,160.6,18.8,162.1,18.8z"/>
		<path d="M171.3,19.5h-1.1v-3.9c0-1.1-0.3-1.6-1.3-1.6c-0.6,0-1.7,0.4-1.7,2.1v3.4h-1.1v-6.3h1v0.9h0c0.2-0.3,0.8-1.1,1.9-1.1
			c1,0,2.2,0.4,2.2,2.2V19.5z"/>
		<path d="M180.3,19.5v-0.9l0,0c-0.4,0.7-1,1.1-2,1.1c-0.9,0-2-0.4-2-1.9v-4.5h1.1v4.2c0,1,0.5,1.4,1.2,1.4c1.3,0,1.7-1.2,1.7-2.1
			v-3.5h1.1v6.3H180.3z"/>
		<path d="M188,19.5h-1.1v-3.9c0-1.1-0.3-1.6-1.3-1.6c-0.6,0-1.7,0.4-1.7,2.1v3.4h-1.1v-6.3h1v0.9h0c0.2-0.3,0.8-1.1,1.9-1.1
			c1,0,2.2,0.4,2.2,2.2V19.5z"/>
		<path d="M194.8,19.5h-1v-0.9h0c-0.5,0.9-1.2,1-1.8,1c-2.1,0-2.8-2-2.8-3.5c0-1.8,0.9-3.1,2.6-3.1c1.1,0,1.6,0.7,1.9,1.1l0-0.1
			v-3.1h1.1V19.5z M192,18.8c0.7,0,1.7-0.4,1.7-2.1c0-1-0.2-2.7-1.7-2.7c-1.6,0-1.7,1.5-1.7,2.4C190.3,17.7,190.8,18.8,192,18.8z"/>
		<path d="M200.9,19.5h-1.2v-8.6h1.2v4.2l4.2-4.2h1.6l-3.6,3.5l3.7,5.1h-1.5l-3-4.3l-1.4,1.3V19.5z"/>
		<path d="M207.5,15.1c0-1.5,1-2.1,2.6-2.1c0.5,0,2.3,0.1,2.3,1.8v3.6c0,0.3,0.1,0.4,0.3,0.4c0.1,0,0.2,0,0.3,0v0.8
			c-0.2,0-0.3,0.1-0.6,0.1c-0.9,0-1.1-0.5-1.1-1c-0.4,0.4-1,1-2.3,1c-1.2,0-2-0.7-2-1.8c0-0.5,0.2-1.8,1.9-2l1.7-0.2
			c0.3,0,0.6-0.1,0.6-0.7c0-0.7-0.5-1-1.5-1c-1.2,0-1.4,0.7-1.4,1.2H207.5z M211.4,16.3c-0.2,0.1-0.4,0.2-1.7,0.4
			c-0.5,0.1-1.3,0.2-1.3,1c0,0.7,0.3,1.1,1.1,1.1c1,0,1.9-0.6,1.9-1.5V16.3z"/>
		<path d="M215.5,14.1v4.1c0,0.5,0.4,0.5,0.6,0.5h0.4v0.8c-0.4,0-0.7,0.1-0.8,0.1c-1,0-1.3-0.6-1.3-1.3v-4.1h-0.9v-0.9h0.9v-1.8h1.1
			v1.8h1v0.9H215.5z"/>
		<path d="M222.9,17.5c0,0.3-0.3,1.2-1.1,1.7c-0.3,0.2-0.7,0.4-1.7,0.4c-1.8,0-2.8-1.3-2.8-3.1c0-1.9,0.9-3.5,3-3.5
			c1.8,0,2.7,1.4,2.7,3.7h-4.6c0,1.3,0.6,2.1,1.8,2.1c1,0,1.6-0.8,1.6-1.2H222.9z M221.9,15.9c-0.1-1-0.5-1.9-1.8-1.9
			c-1,0-1.7,0.9-1.7,1.9H221.9z"/>
		<path d="M229.4,19c0,0.9,0,3.2-2.9,3.2c-0.7,0-2.2-0.2-2.4-1.9h1.1c0.2,1,1.2,1,1.4,1c1.8,0,1.8-1.5,1.8-2.2v-0.3h0v0
			c-0.3,0.4-0.8,0.8-1.7,0.8c-2.1,0-2.8-2-2.8-3.5c0-1.8,0.9-3.1,2.6-3.1c1.1,0,1.6,0.7,1.9,1.1h0v-0.9h1V19z M226.7,18.8
			c0.7,0,1.7-0.4,1.7-2.1c0-1-0.2-2.7-1.7-2.7c-1.6,0-1.7,1.5-1.7,2.4C225,17.7,225.6,18.8,226.7,18.8z"/>
		<path d="M233.5,13c2,0,2.9,1.7,2.9,3.3s-0.9,3.3-2.9,3.3s-2.9-1.7-2.9-3.3S231.5,13,233.5,13z M233.5,18.8c1.5,0,1.8-1.6,1.8-2.4
			c0-0.8-0.3-2.4-1.8-2.4c-1.5,0-1.8,1.6-1.8,2.4C231.6,17.2,232,18.8,233.5,18.8z"/>
		<path d="M238.8,19.5h-1.1v-6.3h1v1h0c0.4-0.7,1-1.2,1.8-1.2c0.1,0,0.2,0,0.3,0v1.1h-0.4c-1,0-1.6,0.8-1.6,1.7V19.5z"/>
		<path d="M241.8,12.1v-1.2h1.1v1.2H241.8z M242.8,19.5h-1.1v-6.3h1.1V19.5z"/>
		<path d="M248,15c0-0.4-0.2-1.1-1.5-1.1c-0.3,0-1.2,0.1-1.2,0.9c0,0.5,0.3,0.6,1.1,0.8l1.1,0.3c1.3,0.3,1.8,0.8,1.8,1.7
			c0,1.3-1.1,2.1-2.5,2.1c-2.5,0-2.7-1.4-2.7-2.2h1c0,0.5,0.2,1.3,1.7,1.3c0.8,0,1.4-0.3,1.4-1c0-0.5-0.3-0.7-1.2-0.9l-1.2-0.3
			c-0.9-0.2-1.5-0.7-1.5-1.5c0-1.4,1.1-2,2.4-2c2.2,0,2.4,1.7,2.4,2H248z"/>
		<path d="M250.4,12.1v-1.2h1.1v1.2H250.4z M251.5,19.5h-1.1v-6.3h1.1V19.5z"/>
		<path d="M258.4,17.5c0,0.3-0.3,1.2-1.1,1.7c-0.3,0.2-0.7,0.4-1.7,0.4c-1.8,0-2.8-1.3-2.8-3.1c0-1.9,0.9-3.5,3-3.5
			c1.8,0,2.7,1.4,2.7,3.7h-4.6c0,1.3,0.6,2.1,1.8,2.1c1,0,1.6-0.8,1.6-1.2H258.4z M257.4,15.9c-0.1-1-0.5-1.9-1.8-1.9
			c-1,0-1.7,0.9-1.7,1.9H257.4z"/>
		<path d="M261,19.5h-1.1v-6.3h1v1h0c0.4-0.7,1-1.2,1.8-1.2c0.1,0,0.2,0,0.3,0v1.1h-0.4c-1,0-1.6,0.8-1.6,1.7V19.5z"/>
		<path d="M268,19.5v-0.9l0,0c-0.4,0.7-1,1.1-2,1.1c-0.9,0-2-0.4-2-1.9v-4.5h1.1v4.2c0,1,0.5,1.4,1.2,1.4c1.3,0,1.7-1.2,1.7-2.1
			v-3.5h1.1v6.3H268z"/>
		<path d="M275.7,19.5h-1.1v-3.9c0-1.1-0.3-1.6-1.3-1.6c-0.6,0-1.7,0.4-1.7,2.1v3.4h-1.1v-6.3h1v0.9h0c0.2-0.3,0.8-1.1,1.9-1.1
			c1,0,2.2,0.4,2.2,2.2V19.5z"/>
		<path d="M282.5,19c0,0.9,0,3.2-2.9,3.2c-0.7,0-2.2-0.2-2.4-1.9h1.1c0.2,1,1.2,1,1.4,1c1.8,0,1.8-1.5,1.8-2.2v-0.3h0v0
			c-0.3,0.4-0.8,0.8-1.7,0.8c-2.1,0-2.8-2-2.8-3.5c0-1.8,0.9-3.1,2.6-3.1c1.1,0,1.6,0.7,1.9,1.1h0v-0.9h1V19z M279.8,18.8
			c0.7,0,1.7-0.4,1.7-2.1c0-1-0.2-2.7-1.7-2.7c-1.6,0-1.7,1.5-1.7,2.4C278.1,17.7,278.6,18.8,279.8,18.8z"/>
	</g>
</g>
<rect x="854.5" y="0.5" pointer-events="all" class="st1" width="280" height="30"/>
<g transform="translate(-0.5 -0.5)">
	<g class="st2">
		<path d="M874.8,10.9h3.8c1.6,0,2.4,1,2.4,2.2c0,0.6-0.2,1.4-1.2,1.8c0.6,0.2,1.6,0.6,1.6,2.1c0,1.4-1,2.5-2.9,2.5h-3.7V10.9z
			 M875.9,14.5h2.1c1.1,0,1.8-0.3,1.8-1.4c0-0.8-0.5-1.3-1.8-1.3h-2.1V14.5z M875.9,18.5h2.5c1.2,0,1.8-0.6,1.8-1.6
			c0-1.2-1.1-1.5-2-1.5h-2.3V18.5z"/>
		<path d="M882.6,15.1c0-1.5,1-2.1,2.6-2.1c0.5,0,2.3,0.1,2.3,1.8v3.6c0,0.3,0.1,0.4,0.3,0.4c0.1,0,0.2,0,0.3,0v0.8
			c-0.2,0-0.3,0.1-0.6,0.1c-0.9,0-1.1-0.5-1.1-1c-0.4,0.4-1,1-2.3,1c-1.2,0-2-0.7-2-1.8c0-0.5,0.2-1.8,1.9-2l1.7-0.2
			c0.3,0,0.6-0.1,0.6-0.7c0-0.7-0.5-1-1.5-1c-1.2,0-1.4,0.7-1.4,1.2H882.6z M886.5,16.3c-0.2,0.1-0.4,0.2-1.7,0.4
			c-0.5,0.1-1.3,0.2-1.3,1c0,0.7,0.3,1.1,1.1,1.1c1,0,1.9-0.6,1.9-1.5V16.3z"/>
		<path d="M892.9,15c0-0.4-0.2-1.1-1.5-1.1c-0.3,0-1.2,0.1-1.2,0.9c0,0.5,0.3,0.6,1.1,0.8l1.1,0.3c1.3,0.3,1.8,0.8,1.8,1.7
			c0,1.3-1.1,2.1-2.5,2.1c-2.5,0-2.7-1.4-2.7-2.2h1c0,0.5,0.2,1.3,1.7,1.3c0.8,0,1.4-0.3,1.4-1c0-0.5-0.3-0.7-1.2-0.9l-1.2-0.3
			c-0.9-0.2-1.5-0.7-1.5-1.5c0-1.4,1.1-2,2.4-2c2.2,0,2.4,1.7,2.4,2H892.9z"/>
		<path d="M895.3,12.1v-1.2h1.1v1.2H895.3z M896.4,19.5h-1.1v-6.3h1.1V19.5z"/>
		<path d="M903.3,17.5c0,0.3-0.3,1.2-1.1,1.7c-0.3,0.2-0.7,0.4-1.7,0.4c-1.8,0-2.8-1.3-2.8-3.1c0-1.9,0.9-3.5,3-3.5
			c1.8,0,2.7,1.4,2.7,3.7h-4.6c0,1.3,0.6,2.1,1.8,2.1c1,0,1.6-0.8,1.6-1.2H903.3z M902.3,15.9c-0.1-1-0.5-1.9-1.8-1.9
			c-1,0-1.7,0.9-1.7,1.9H902.3z"/>
		<path d="M905.9,19.5h-1.1v-6.3h1v1h0c0.4-0.7,1-1.2,1.8-1.2c0.1,0,0.2,0,0.3,0v1.1h-0.4c-1,0-1.6,0.8-1.6,1.7V19.5z"/>
		<path d="M914,17.5c0,0.3-0.3,1.2-1.1,1.7c-0.3,0.2-0.7,0.4-1.7,0.4c-1.8,0-2.8-1.3-2.8-3.1c0-1.9,0.9-3.5,3-3.5
			c1.8,0,2.7,1.4,2.7,3.7h-4.6c0,1.3,0.6,2.1,1.8,2.1c1,0,1.6-0.8,1.6-1.2H914z M913,15.9c-0.1-1-0.5-1.9-1.8-1.9
			c-1,0-1.7,0.9-1.7,1.9H913z"/>
		<path d="M920.4,19.5h-1.1v-3.9c0-1.1-0.3-1.6-1.3-1.6c-0.6,0-1.7,0.4-1.7,2.1v3.4h-1.1v-6.3h1v0.9h0c0.2-0.3,0.8-1.1,1.9-1.1
			c1,0,2.2,0.4,2.2,2.2V19.5z"/>
		<path d="M927.2,19.5h-1v-0.9h0c-0.5,0.9-1.2,1-1.8,1c-2.1,0-2.8-2-2.8-3.5c0-1.8,0.9-3.1,2.6-3.1c1.1,0,1.6,0.7,1.9,1.1l0-0.1
			v-3.1h1.1V19.5z M924.4,18.8c0.7,0,1.7-0.4,1.7-2.1c0-1-0.2-2.7-1.7-2.7c-1.6,0-1.7,1.5-1.7,2.4C922.7,17.7,923.3,18.8,924.4,18.8
			z"/>
		<path d="M932,15.1c0-1.5,1-2.1,2.6-2.1c0.5,0,2.3,0.1,2.3,1.8v3.6c0,0.3,0.1,0.4,0.3,0.4c0.1,0,0.2,0,0.3,0v0.8
			c-0.2,0-0.3,0.1-0.6,0.1c-0.9,0-1.1-0.5-1.1-1c-0.4,0.4-1,1-2.3,1c-1.2,0-2-0.7-2-1.8c0-0.5,0.2-1.8,1.9-2l1.7-0.2
			c0.3,0,0.6-0.1,0.6-0.7c0-0.7-0.5-1-1.5-1c-1.2,0-1.4,0.7-1.4,1.2H932z M935.8,16.3c-0.2,0.1-0.4,0.2-1.7,0.4
			c-0.5,0.1-1.3,0.2-1.3,1c0,0.7,0.3,1.1,1.1,1.1c1,0,1.9-0.6,1.9-1.5V16.3z"/>
		<path d="M942.8,19.5v-0.9l0,0c-0.4,0.7-1,1.1-2,1.1c-0.9,0-2-0.4-2-1.9v-4.5h1.1v4.2c0,1,0.5,1.4,1.2,1.4c1.3,0,1.7-1.2,1.7-2.1
			v-3.5h1.1v6.3H942.8z"/>
		<path d="M946.7,14.1v5.4h-1.1v-5.4h-0.9v-0.9h0.9v-1.1c0-0.9,0.6-1.4,1.6-1.4c0.2,0,0.3,0,0.5,0v0.9c-0.1,0-0.3,0-0.4,0
			c-0.5,0-0.6,0.2-0.6,0.7v0.8h1.1v0.9H946.7z"/>
		<path d="M953.5,17l-0.9,2.5h-1.2l3.2-8.6h1.3l3.1,8.6h-1.3L957,17H953.5z M956.5,16l-1.3-3.8h0l-1.4,3.8H956.5z"/>
		<path d="M965.1,19.5h-1.1v-3.9c0-1.1-0.3-1.6-1.3-1.6c-0.6,0-1.7,0.4-1.7,2.1v3.4H960v-6.3h1v0.9h0c0.2-0.3,0.8-1.1,1.9-1.1
			c1,0,2.2,0.4,2.2,2.2V19.5z"/>
		<path d="M971.9,19c0,0.9,0,3.2-2.9,3.2c-0.7,0-2.2-0.2-2.4-1.9h1.1c0.2,1,1.2,1,1.4,1c1.8,0,1.8-1.5,1.8-2.2v-0.3h0v0
			c-0.3,0.4-0.8,0.8-1.7,0.8c-2.1,0-2.8-2-2.8-3.5c0-1.8,0.9-3.1,2.6-3.1c1.1,0,1.6,0.7,1.9,1.1h0v-0.9h1V19z M969.2,18.8
			c0.7,0,1.7-0.4,1.7-2.1c0-1-0.2-2.7-1.7-2.7c-1.6,0-1.7,1.5-1.7,2.4C967.5,17.7,968,18.8,969.2,18.8z"/>
		<path d="M978.7,17.5c0,0.3-0.3,1.2-1.1,1.7c-0.3,0.2-0.7,0.4-1.7,0.4c-1.8,0-2.8-1.3-2.8-3.1c0-1.9,0.9-3.5,3-3.5
			c1.8,0,2.7,1.4,2.7,3.7h-4.6c0,1.3,0.6,2.1,1.8,2.1c1,0,1.6-0.8,1.6-1.2H978.7z M977.7,15.9c-0.1-1-0.5-1.9-1.8-1.9
			c-1,0-1.7,0.9-1.7,1.9H977.7z"/>
		<path d="M980,19.5v-8.6h1.1V14h0c0.5-0.7,1.1-1,1.8-1c1.7,0,2.6,1.4,2.6,3.1c0,1.5-0.6,3.5-2.8,3.5c-1.1,0-1.5-0.6-1.7-1h0v0.8
			H980z M982.7,14c-1.5,0-1.7,1.6-1.7,2.7c0,1.7,1,2.1,1.7,2.1c1.2,0,1.7-1,1.7-2.4C984.4,15.5,984.3,14,982.7,14z"/>
		<path d="M989.3,13c2,0,2.9,1.7,2.9,3.3s-0.9,3.3-2.9,3.3s-2.9-1.7-2.9-3.3S987.3,13,989.3,13z M989.3,18.8c1.5,0,1.8-1.6,1.8-2.4
			c0-0.8-0.3-2.4-1.8-2.4s-1.8,1.6-1.8,2.4C987.4,17.2,987.8,18.8,989.3,18.8z"/>
		<path d="M994.7,14.1v4.1c0,0.5,0.4,0.5,0.6,0.5h0.4v0.8c-0.4,0-0.7,0.1-0.8,0.1c-1,0-1.3-0.6-1.3-1.3v-4.1h-0.9v-0.9h0.9v-1.8h1.1
			v1.8h1v0.9H994.7z"/>
		<path d="M1000.3,15c0-0.4-0.2-1.1-1.5-1.1c-0.3,0-1.2,0.1-1.2,0.9c0,0.5,0.3,0.6,1.1,0.8l1.1,0.3c1.3,0.3,1.8,0.8,1.8,1.7
			c0,1.3-1.1,2.1-2.5,2.1c-2.5,0-2.7-1.4-2.7-2.2h1c0,0.5,0.2,1.3,1.7,1.3c0.8,0,1.4-0.3,1.4-1c0-0.5-0.3-0.7-1.2-0.9l-1.2-0.3
			c-0.9-0.2-1.5-0.7-1.5-1.5c0-1.4,1.1-2,2.4-2c2.2,0,2.4,1.7,2.4,2H1000.3z"/>
		<path d="M1006.3,15c0-0.4-0.2-1.1-1.5-1.1c-0.3,0-1.2,0.1-1.2,0.9c0,0.5,0.3,0.6,1.1,0.8l1.1,0.3c1.3,0.3,1.8,0.8,1.8,1.7
			c0,1.3-1.1,2.1-2.5,2.1c-2.5,0-2.7-1.4-2.7-2.2h1c0,0.5,0.2,1.3,1.7,1.3c0.8,0,1.4-0.3,1.4-1c0-0.5-0.3-0.7-1.2-0.9l-1.2-0.3
			c-0.9-0.2-1.5-0.7-1.5-1.5c0-1.4,1.1-2,2.4-2c2.2,0,2.4,1.7,2.4,2H1006.3z"/>
		<path d="M1010,14.1v4.1c0,0.5,0.4,0.5,0.6,0.5h0.4v0.8c-0.4,0-0.7,0.1-0.8,0.1c-1,0-1.3-0.6-1.3-1.3v-4.1h-0.9v-0.9h0.9v-1.8h1.1
			v1.8h1v0.9H1010z"/>
		<path d="M1012,15.1c0-1.5,1-2.1,2.6-2.1c0.5,0,2.3,0.1,2.3,1.8v3.6c0,0.3,0.1,0.4,0.3,0.4c0.1,0,0.2,0,0.3,0v0.8
			c-0.2,0-0.3,0.1-0.6,0.1c-0.9,0-1.1-0.5-1.1-1c-0.4,0.4-1,1-2.3,1c-1.2,0-2-0.7-2-1.8c0-0.5,0.2-1.8,1.9-2l1.7-0.2
			c0.3,0,0.6-0.1,0.6-0.7c0-0.7-0.5-1-1.5-1c-1.2,0-1.4,0.7-1.4,1.2H1012z M1015.9,16.3c-0.2,0.1-0.4,0.2-1.7,0.4
			c-0.5,0.1-1.3,0.2-1.3,1c0,0.7,0.3,1.1,1.1,1.1c1,0,1.9-0.6,1.9-1.5V16.3z"/>
		<path d="M1023.8,19.5h-1.1v-3.9c0-1.1-0.3-1.6-1.3-1.6c-0.6,0-1.7,0.4-1.7,2.1v3.4h-1.1v-6.3h1v0.9h0c0.2-0.3,0.8-1.1,1.9-1.1
			c1,0,2.2,0.4,2.2,2.2V19.5z"/>
		<path d="M1030.6,19.5h-1v-0.9h0c-0.5,0.9-1.2,1-1.8,1c-2.1,0-2.8-2-2.8-3.5c0-1.8,0.9-3.1,2.6-3.1c1.1,0,1.6,0.7,1.9,1.1l0-0.1
			v-3.1h1.1V19.5z M1027.8,18.8c0.7,0,1.7-0.4,1.7-2.1c0-1-0.2-2.7-1.7-2.7c-1.6,0-1.7,1.5-1.7,2.4
			C1026.1,17.7,1026.7,18.8,1027.8,18.8z"/>
		<path d="M1034.6,13c2,0,2.9,1.7,2.9,3.3s-0.9,3.3-2.9,3.3s-2.9-1.7-2.9-3.3S1032.6,13,1034.6,13z M1034.6,18.8
			c1.5,0,1.8-1.6,1.8-2.4c0-0.8-0.3-2.4-1.8-2.4s-1.8,1.6-1.8,2.4C1032.8,17.2,1033.1,18.8,1034.6,18.8z"/>
		<path d="M1039.9,19.5h-1.1v-6.3h1v1h0c0.4-0.7,1-1.2,1.8-1.2c0.1,0,0.2,0,0.3,0v1.1h-0.4c-1,0-1.6,0.8-1.6,1.7V19.5z"/>
		<path d="M1044.5,14.1v4.1c0,0.5,0.4,0.5,0.6,0.5h0.4v0.8c-0.4,0-0.7,0.1-0.8,0.1c-1,0-1.3-0.6-1.3-1.3v-4.1h-0.9v-0.9h0.9v-1.8
			h1.1v1.8h1v0.9H1044.5z"/>
		<path d="M1052.7,10.7c-1,1.9-1.6,3.1-1.6,5.9c0,2,0.7,3.4,1.6,5.3h-0.7c-1.2-1.9-2.1-3.4-2.1-5.6c0-2.1,0.7-3.8,2-5.7H1052.7z"/>
		<path d="M1056.4,13c2,0,2.9,1.7,2.9,3.3s-0.9,3.3-2.9,3.3s-2.9-1.7-2.9-3.3S1054.4,13,1056.4,13z M1056.4,18.8
			c1.5,0,1.8-1.6,1.8-2.4c0-0.8-0.3-2.4-1.8-2.4c-1.5,0-1.8,1.6-1.8,2.4C1054.6,17.2,1054.9,18.8,1056.4,18.8z"/>
		<path d="M1065.8,19.5h-1v-0.9h0c-0.5,0.9-1.2,1-1.8,1c-2.1,0-2.8-2-2.8-3.5c0-1.8,0.9-3.1,2.6-3.1c1.1,0,1.6,0.7,1.9,1.1l0-0.1
			v-3.1h1.1V19.5z M1063,18.8c0.7,0,1.7-0.4,1.7-2.1c0-1-0.2-2.7-1.7-2.7c-1.6,0-1.7,1.5-1.7,2.4C1061.3,17.7,1061.8,18.8,1063,18.8
			z"/>
		<path d="M1072.6,17.5c0,0.3-0.3,1.2-1.1,1.7c-0.3,0.2-0.7,0.4-1.7,0.4c-1.8,0-2.8-1.3-2.8-3.1c0-1.9,0.9-3.5,3-3.5
			c1.8,0,2.7,1.4,2.7,3.7h-4.6c0,1.3,0.6,2.1,1.8,2.1c1,0,1.6-0.8,1.6-1.2H1072.6z M1071.5,15.9c-0.1-1-0.5-1.9-1.8-1.9
			c-1,0-1.7,0.9-1.7,1.9H1071.5z"/>
		<path d="M1075.1,19.5h-1.1v-6.3h1v1h0c0.4-0.7,1-1.2,1.8-1.2c0.1,0,0.2,0,0.3,0v1.1h-0.4c-1,0-1.6,0.8-1.6,1.7V19.5z"/>
		<path d="M1082.5,19.5h-1.2v-8.6h1.2v4.2l4.2-4.2h1.6l-3.6,3.5l3.7,5.1h-1.5l-3-4.3l-1.4,1.3V19.5z"/>
		<path d="M1089.2,15.1c0-1.5,1-2.1,2.6-2.1c0.5,0,2.3,0.1,2.3,1.8v3.6c0,0.3,0.1,0.4,0.3,0.4c0.1,0,0.2,0,0.3,0v0.8
			c-0.2,0-0.3,0.1-0.6,0.1c-0.9,0-1.1-0.5-1.1-1c-0.4,0.4-1,1-2.3,1c-1.2,0-2-0.7-2-1.8c0-0.5,0.2-1.8,1.9-2l1.7-0.2
			c0.3,0,0.6-0.1,0.6-0.7c0-0.7-0.5-1-1.5-1c-1.2,0-1.4,0.7-1.4,1.2H1089.2z M1093.1,16.3c-0.2,0.1-0.4,0.2-1.7,0.4
			c-0.5,0.1-1.3,0.2-1.3,1c0,0.7,0.3,1.1,1.1,1.1c1,0,1.9-0.6,1.9-1.5V16.3z"/>
		<path d="M1101,19.5h-1.1v-3.9c0-1.1-0.3-1.6-1.3-1.6c-0.6,0-1.7,0.4-1.7,2.1v3.4h-1.1v-6.3h1v0.9h0c0.2-0.3,0.8-1.1,1.9-1.1
			c1,0,2.2,0.4,2.2,2.2V19.5z"/>
		<path d="M1102.5,15.1c0-1.5,1-2.1,2.6-2.1c0.5,0,2.3,0.1,2.3,1.8v3.6c0,0.3,0.1,0.4,0.3,0.4c0.1,0,0.2,0,0.3,0v0.8
			c-0.2,0-0.3,0.1-0.6,0.1c-0.9,0-1.1-0.5-1.1-1c-0.4,0.4-1,1-2.3,1c-1.2,0-2-0.7-2-1.8c0-0.5,0.2-1.8,1.9-2l1.7-0.2
			c0.3,0,0.6-0.1,0.6-0.7c0-0.7-0.5-1-1.5-1c-1.2,0-1.4,0.7-1.4,1.2H1102.5z M1106.4,16.3c-0.2,0.1-0.4,0.2-1.7,0.4
			c-0.5,0.1-1.3,0.2-1.3,1c0,0.7,0.3,1.1,1.1,1.1c1,0,1.9-0.6,1.9-1.5V16.3z"/>
		<path d="M1110.3,19.5h-1.1v-8.6h1.1V19.5z"/>
		<path d="M1111.6,22c1-1.9,1.6-3.1,1.6-5.9c0-2-0.7-3.4-1.6-5.3h0.7c1.2,1.9,2.1,3.4,2.1,5.6c0,2.1-0.7,3.8-2,5.7H1111.6z"/>
	</g>
</g>
<rect x="387.5" y="0.5" pointer-events="all" class="st1" width="280" height="30"/>
<g transform="translate(-0.5 -0.5)">
	<g class="st2">
		<path d="M460.7,10.9h3.8c1.6,0,2.4,1,2.4,2.2c0,0.6-0.2,1.4-1.2,1.8c0.6,0.2,1.6,0.6,1.6,2.1c0,1.4-1,2.5-2.9,2.5h-3.7V10.9z
			 M461.8,14.5h2.1c1.1,0,1.8-0.3,1.8-1.4c0-0.8-0.5-1.3-1.8-1.3h-2.1V14.5z M461.8,18.5h2.5c1.2,0,1.8-0.6,1.8-1.6
			c0-1.2-1.1-1.5-2-1.5h-2.3V18.5z"/>
		<path d="M468.5,15.1c0-1.5,1-2.1,2.6-2.1c0.5,0,2.3,0.1,2.3,1.8v3.6c0,0.3,0.1,0.4,0.3,0.4c0.1,0,0.2,0,0.3,0v0.8
			c-0.2,0-0.3,0.1-0.6,0.1c-0.9,0-1.1-0.5-1.1-1c-0.4,0.4-1,1-2.3,1c-1.2,0-2-0.7-2-1.8c0-0.5,0.2-1.8,1.9-2l1.7-0.2
			c0.3,0,0.6-0.1,0.6-0.7c0-0.7-0.5-1-1.5-1c-1.2,0-1.4,0.7-1.4,1.2H468.5z M472.4,16.3c-0.2,0.1-0.4,0.2-1.7,0.4
			c-0.5,0.1-1.3,0.2-1.3,1c0,0.7,0.3,1.1,1.1,1.1c1,0,1.9-0.6,1.9-1.5V16.3z"/>
		<path d="M478.8,15c0-0.4-0.2-1.1-1.5-1.1c-0.3,0-1.2,0.1-1.2,0.9c0,0.5,0.3,0.6,1.1,0.8l1.1,0.3c1.3,0.3,1.8,0.8,1.8,1.7
			c0,1.3-1.1,2.1-2.5,2.1c-2.5,0-2.7-1.4-2.7-2.2h1c0,0.5,0.2,1.3,1.7,1.3c0.8,0,1.4-0.3,1.4-1c0-0.5-0.3-0.7-1.2-0.9l-1.2-0.3
			c-0.9-0.2-1.5-0.7-1.5-1.5c0-1.4,1.1-2,2.4-2c2.2,0,2.4,1.7,2.4,2H478.8z"/>
		<path d="M481.3,12.1v-1.2h1.1v1.2H481.3z M482.3,19.5h-1.1v-6.3h1.1V19.5z"/>
		<path d="M489.2,17.5c0,0.3-0.3,1.2-1.1,1.7c-0.3,0.2-0.7,0.4-1.7,0.4c-1.8,0-2.8-1.3-2.8-3.1c0-1.9,0.9-3.5,3-3.5
			c1.8,0,2.7,1.4,2.7,3.7h-4.6c0,1.3,0.6,2.1,1.8,2.1c1,0,1.6-0.8,1.6-1.2H489.2z M488.2,15.9c-0.1-1-0.5-1.9-1.8-1.9
			c-1,0-1.7,0.9-1.7,1.9H488.2z"/>
		<path d="M491.8,19.5h-1.1v-6.3h1v1h0c0.4-0.7,1-1.2,1.8-1.2c0.1,0,0.2,0,0.3,0v1.1h-0.4c-1,0-1.6,0.8-1.6,1.7V19.5z"/>
		<path d="M499.9,17.5c0,0.3-0.3,1.2-1.1,1.7c-0.3,0.2-0.7,0.4-1.7,0.4c-1.8,0-2.8-1.3-2.8-3.1c0-1.9,0.9-3.5,3-3.5
			c1.8,0,2.7,1.4,2.7,3.7h-4.6c0,1.3,0.6,2.1,1.8,2.1c1,0,1.6-0.8,1.6-1.2H499.9z M498.9,15.9c-0.1-1-0.5-1.9-1.8-1.9
			c-1,0-1.7,0.9-1.7,1.9H498.9z"/>
		<path d="M506.4,19.5h-1.1v-3.9c0-1.1-0.3-1.6-1.3-1.6c-0.6,0-1.7,0.4-1.7,2.1v3.4h-1.1v-6.3h1v0.9h0c0.2-0.3,0.8-1.1,1.9-1.1
			c1,0,2.2,0.4,2.2,2.2V19.5z"/>
		<path d="M513.1,19.5h-1v-0.9h0c-0.5,0.9-1.2,1-1.8,1c-2.1,0-2.8-2-2.8-3.5c0-1.8,0.9-3.1,2.6-3.1c1.1,0,1.6,0.7,1.9,1.1l0-0.1
			v-3.1h1.1V19.5z M510.3,18.8c0.7,0,1.7-0.4,1.7-2.1c0-1-0.2-2.7-1.7-2.7c-1.6,0-1.7,1.5-1.7,2.4C508.7,17.7,509.2,18.8,510.3,18.8
			z"/>
		<path d="M517.9,15.1c0-1.5,1-2.1,2.6-2.1c0.5,0,2.3,0.1,2.3,1.8v3.6c0,0.3,0.1,0.4,0.3,0.4c0.1,0,0.2,0,0.3,0v0.8
			c-0.2,0-0.3,0.1-0.6,0.1c-0.9,0-1.1-0.5-1.1-1c-0.4,0.4-1,1-2.3,1c-1.2,0-2-0.7-2-1.8c0-0.5,0.2-1.8,1.9-2l1.7-0.2
			c0.3,0,0.6-0.1,0.6-0.7c0-0.7-0.5-1-1.5-1c-1.2,0-1.4,0.7-1.4,1.2H517.9z M521.8,16.3c-0.2,0.1-0.4,0.2-1.7,0.4
			c-0.5,0.1-1.3,0.2-1.3,1c0,0.7,0.3,1.1,1.1,1.1c1,0,1.9-0.6,1.9-1.5V16.3z"/>
		<path d="M528.7,19.5v-0.9l0,0c-0.4,0.7-1,1.1-2,1.1c-0.9,0-2-0.4-2-1.9v-4.5h1.1v4.2c0,1,0.5,1.4,1.2,1.4c1.3,0,1.7-1.2,1.7-2.1
			v-3.5h1.1v6.3H528.7z"/>
		<path d="M532.6,14.1v5.4h-1.1v-5.4h-0.9v-0.9h0.9v-1.1c0-0.9,0.6-1.4,1.6-1.4c0.2,0,0.3,0,0.5,0v0.9c-0.1,0-0.3,0-0.4,0
			c-0.5,0-0.6,0.2-0.6,0.7v0.8h1.1v0.9H532.6z"/>
		<path d="M539.2,19.5h-1.2v-8.6h1.2v4.2l4.2-4.2h1.6l-3.6,3.5l3.7,5.1h-1.5l-3-4.3l-1.4,1.3V19.5z"/>
		<path d="M545.9,15.1c0-1.5,1-2.1,2.6-2.1c0.5,0,2.3,0.1,2.3,1.8v3.6c0,0.3,0.1,0.4,0.3,0.4c0.1,0,0.2,0,0.3,0v0.8
			c-0.2,0-0.3,0.1-0.6,0.1c-0.9,0-1.1-0.5-1.1-1c-0.4,0.4-1,1-2.3,1c-1.2,0-2-0.7-2-1.8c0-0.5,0.2-1.8,1.9-2l1.7-0.2
			c0.3,0,0.6-0.1,0.6-0.7c0-0.7-0.5-1-1.5-1c-1.2,0-1.4,0.7-1.4,1.2H545.9z M549.8,16.3c-0.2,0.1-0.4,0.2-1.7,0.4
			c-0.5,0.1-1.3,0.2-1.3,1c0,0.7,0.3,1.1,1.1,1.1c1,0,1.9-0.6,1.9-1.5V16.3z"/>
		<path d="M552.6,13.2h1v0.9h0c0.2-0.3,0.8-1.1,1.9-1.1c1.1,0,1.5,0.7,1.7,1c0.5-0.6,0.9-1,1.9-1c0.7,0,1.9,0.3,1.9,2.1v4.3H560
			v-4.1c0-0.9-0.3-1.5-1.2-1.5c-0.9,0-1.5,0.8-1.5,1.7v3.8h-1.1v-4.3c0-0.5-0.2-1.2-1-1.2c-0.6,0-1.7,0.4-1.7,2.1v3.4h-1.1V13.2z"/>
		<path d="M562.5,13.2h1v0.9h0c0.3-0.4,0.7-1.1,1.9-1.1c1.7,0,2.6,1.4,2.6,3.1c0,1.5-0.6,3.5-2.8,3.5c-0.8,0-1.4-0.4-1.7-0.8h0V22
			h-1.1V13.2z M565.3,18.8c1.2,0,1.7-1,1.7-2.4c0-0.8-0.1-2.4-1.7-2.4c-1.5,0-1.7,1.6-1.7,2.7C563.5,18.3,564.6,18.8,565.3,18.8z"/>
		<path d="M569.3,15.1c0-1.5,1-2.1,2.6-2.1c0.5,0,2.3,0.1,2.3,1.8v3.6c0,0.3,0.1,0.4,0.3,0.4c0.1,0,0.2,0,0.3,0v0.8
			c-0.2,0-0.3,0.1-0.6,0.1c-0.9,0-1.1-0.5-1.1-1c-0.4,0.4-1,1-2.3,1c-1.2,0-2-0.7-2-1.8c0-0.5,0.2-1.8,1.9-2l1.7-0.2
			c0.3,0,0.6-0.1,0.6-0.7c0-0.7-0.5-1-1.5-1c-1.2,0-1.4,0.7-1.4,1.2H569.3z M573.1,16.3c-0.2,0.1-0.4,0.2-1.7,0.4
			c-0.5,0.1-1.3,0.2-1.3,1c0,0.7,0.3,1.1,1.1,1.1c1,0,1.9-0.6,1.9-1.5V16.3z"/>
		<path d="M581.2,19c0,0.9,0,3.2-2.9,3.2c-0.7,0-2.2-0.2-2.4-1.9h1.1c0.2,1,1.2,1,1.4,1c1.8,0,1.8-1.5,1.8-2.2v-0.3h0v0
			c-0.3,0.4-0.8,0.8-1.7,0.8c-2.1,0-2.8-2-2.8-3.5c0-1.8,0.9-3.1,2.6-3.1c1.1,0,1.6,0.7,1.9,1.1h0v-0.9h1V19z M578.4,18.8
			c0.7,0,1.7-0.4,1.7-2.1c0-1-0.2-2.7-1.7-2.7c-1.6,0-1.7,1.5-1.7,2.4C576.8,17.7,577.3,18.8,578.4,18.8z"/>
		<path d="M587.7,19.5h-1.1v-3.9c0-1.1-0.3-1.6-1.3-1.6c-0.6,0-1.7,0.4-1.7,2.1v3.4h-1.1v-6.3h1v0.9h0c0.2-0.3,0.8-1.1,1.9-1.1
			c1,0,2.2,0.4,2.2,2.2V19.5z"/>
		<path d="M594.6,17.5c0,0.3-0.3,1.2-1.1,1.7c-0.3,0.2-0.7,0.4-1.7,0.4c-1.8,0-2.8-1.3-2.8-3.1c0-1.9,0.9-3.5,3-3.5
			c1.8,0,2.7,1.4,2.7,3.7h-4.6c0,1.3,0.6,2.1,1.8,2.1c1,0,1.6-0.8,1.6-1.2H594.6z M593.6,15.9c-0.1-1-0.5-1.9-1.8-1.9
			c-1,0-1.7,0.9-1.7,1.9H593.6z"/>
	</g>
</g>
<g class="st2">
	<rect x="4.7" y="65.2" class="st3" width="172.6" height="63.1"/>
	<path class="st4" d="M174.7,67.7v58.1H7.2V67.7H174.7 M179.7,62.7h-5H7.2h-5v5v58.1v5h5h167.6h5v-5V67.7V62.7L179.7,62.7z"/>
</g>
<rect x="-69.4" y="60" class="st5" width="17.3" height="17.3"/>
<rect x="-67.6" y="86.8" class="st6" width="17.3" height="17.3"/>
<path class="st7" d="M90.9,129.2c0,0-0.7,208.8-0.3,278.9c0,6.4-3.8,16,24.6,12.6"/>
<polyline class="st7" points="167,437.4 167,473 182.3,473 "/>
<polyline class="st7" points="261.1,285.9 261.1,378.6 278.1,378.6 "/>
<line class="st7" x1="273.5" y1="322.6" x2="261.1" y2="322.6"/>
<line class="st7" x1="274.2" y1="350.6" x2="261.1" y2="350.6"/>
<polyline class="st7" points="209.2,241.5 209.2,277.5 223.8,277.5 "/>
<polyline class="st7" points="161,195.7 161,231.7 175.6,231.7 "/>
<g>
	<g>
		<path class="st0" d="M161,211.2c-2.6,0-4.7-2.1-4.7-4.7c0-2.6,2.1-4.7,4.7-4.7s4.7,2.1,4.7,4.7C165.7,209.1,163.6,211.2,161,211.2
			z"/>
		<path class="st4" d="M161,202.2c2.3,0,4.2,1.9,4.2,4.2c0,2.3-1.9,4.2-4.2,4.2s-4.2-1.9-4.2-4.2C156.8,204.1,158.7,202.2,161,202.2
			 M161,201.2c-2.9,0-5.2,2.3-5.2,5.2s2.3,5.2,5.2,5.2s5.2-2.3,5.2-5.2S163.9,201.2,161,201.2L161,201.2z"/>
	</g>
	<g transform="translate(-0.5 -0.5)">
		<g class="st2">
			<path d="M163,207.5H160v-1.1h2.9V207.5z"/>
		</g>
	</g>
</g>
<g>
	<g>
		<path class="st0" d="M209.2,255.7c-2.6,0-4.7-2.1-4.7-4.7c0-2.6,2.1-4.7,4.7-4.7s4.7,2.1,4.7,4.7
			C213.9,253.6,211.8,255.7,209.2,255.7z"/>
		<path class="st4" d="M209.2,246.8c2.3,0,4.2,1.9,4.2,4.2c0,2.3-1.9,4.2-4.2,4.2s-4.2-1.9-4.2-4.2
			C204.9,248.7,206.8,246.8,209.2,246.8 M209.2,245.8c-2.9,0-5.2,2.3-5.2,5.2s2.3,5.2,5.2,5.2s5.2-2.3,5.2-5.2
			S212,245.8,209.2,245.8L209.2,245.8z"/>
	</g>
	<g transform="translate(-0.5 -0.5)">
		<g class="st2">
			<path d="M211.1,252h-2.9V251h2.9V252z"/>
		</g>
	</g>
</g>
<g>
	<g>
		<path class="st0" d="M261.1,300.9c-2.6,0-4.7-2.1-4.7-4.7c0-2.6,2.1-4.7,4.7-4.7s4.7,2.1,4.7,4.7
			C265.8,298.8,263.7,300.9,261.1,300.9z"/>
		<path class="st4" d="M261.1,291.9c2.3,0,4.2,1.9,4.2,4.2c0,2.3-1.9,4.2-4.2,4.2c-2.3,0-4.2-1.9-4.2-4.2
			C256.8,293.8,258.7,291.9,261.1,291.9 M261.1,290.9c-2.9,0-5.2,2.3-5.2,5.2s2.3,5.2,5.2,5.2s5.2-2.3,5.2-5.2
			S264,290.9,261.1,290.9L261.1,290.9z"/>
	</g>
	<g transform="translate(-0.5 -0.5)">
		<g class="st2">
			<path d="M263,297.2h-2.9v-1.1h2.9V297.2z"/>
		</g>
	</g>
</g>
<g>
	<g>
		<path class="st0" d="M167,452c-2.6,0-4.7-2.1-4.7-4.7c0-2.6,2.1-4.7,4.7-4.7s4.7,2.1,4.7,4.7C171.7,449.9,169.6,452,167,452z"/>
		<path class="st4" d="M167,443.1c2.3,0,4.2,1.9,4.2,4.2c0,2.3-1.9,4.2-4.2,4.2s-4.2-1.9-4.2-4.2C162.8,445,164.7,443.1,167,443.1
			 M167,442.1c-2.9,0-5.2,2.3-5.2,5.2s2.3,5.2,5.2,5.2s5.2-2.3,5.2-5.2S169.9,442.1,167,442.1L167,442.1z"/>
	</g>
	<g transform="translate(-0.5 -0.5)">
		<g class="st2">
			<path d="M169,448.4H166v-1.1h2.9V448.4z"/>
		</g>
	</g>
</g>
<g class="st2">
	<rect x="171.9" y="221.3" class="st8" width="74.5" height="22"/>
	<path class="st3" d="M245.2,222.6v19.5h-72v-19.5H245.2 M247.7,220.1h-2.5h-72h-2.5v2.5v19.5v2.5h2.5h72h2.5v-2.5v-19.5V220.1
		L247.7,220.1z"/>
</g>
<g class="st2">
	<rect x="219" y="266.5" class="st8" width="84.2" height="22"/>
	<path class="st3" d="M301.9,267.7v19.5h-81.7v-19.5H301.9 M304.4,265.2h-2.5h-81.7h-2.5v2.5v19.5v2.5h2.5h81.7h2.5v-2.5v-19.5
		V265.2L304.4,265.2z"/>
</g>
<g class="st2">
	<rect x="271.3" y="311.6" class="st8" width="51.3" height="22"/>
	<path class="st3" d="M321.3,312.9v19.5h-48.8v-19.5H321.3 M323.8,310.4h-2.5h-48.8H270v2.5v19.5v2.5h2.5h48.8h2.5v-2.5v-19.5V310.4
		L323.8,310.4z"/>
</g>
<g class="st2">
	<rect x="271.3" y="339.6" class="st8" width="71.1" height="22"/>
	<path class="st3" d="M341.2,340.9v19.5h-68.6v-19.5H341.2 M343.7,338.4h-2.5h-68.6H270v2.5v19.5v2.5h2.5h68.6h2.5v-2.5v-19.5V338.4
		L343.7,338.4z"/>
</g>
<g class="st2">
	<rect x="178.1" y="462.5" class="st8" width="83.2" height="22"/>
	<path class="st3" d="M260,463.7v19.5h-80.7v-19.5H260 M262.5,461.2H260h-80.7h-2.5v2.5v19.5v2.5h2.5H260h2.5v-2.5v-19.5V461.2
		L262.5,461.2z"/>
</g>
<g class="st2">
	<rect x="271.3" y="367.6" class="st8" width="82" height="22"/>
	<path class="st3" d="M352.1,368.9v19.5h-79.5v-19.5H352.1 M354.6,366.4h-2.5h-79.5H270v2.5v19.5v2.5h2.5h79.5h2.5v-2.5v-19.5V366.4
		L354.6,366.4z"/>
</g>
<g>
	<rect x="110.8" y="402.9" class="st0" width="111.2" height="36.9"/>
	<path class="st4" d="M221,403.9v34.9H111.8v-34.9H221 M223,401.9h-2H111.8h-2v2v34.9v2h2H221h2v-2v-34.9V401.9L223,401.9z"/>
</g>
<path class="st7" d="M90.9,170.3c0,0-2.1,9.8,10.4,9.6h16.3"/>
<g>
	<rect x="111.4" y="161.4" class="st0" width="99.2" height="36.9"/>
	<path class="st4" d="M209.6,162.4v34.9h-97.2v-34.9H209.6 M211.6,160.4h-2h-97.2h-2v2v34.9v2h2h97.2h2v-2v-34.9V160.4L211.6,160.4z
		"/>
</g>
<g transform="translate(-0.5 -0.5)">
	<g class="st2">
		<path d="M39.1,104.6h-2.7l4.4-12.2h2.9l4.3,12.2h-2.8l-0.8-2.5H40L39.1,104.6z M40.7,99.9h3.1l-1.5-4.8h0L40.7,99.9z"/>
		<path d="M58.7,94.5h-6.5v2.6h6v2.2h-6v3.2H59v2.2h-9.3V92.3h9V94.5z"/>
		<path d="M72.8,104.6h-2.4V94.4h0l-2.3,10.2h-2.5l-2.2-10.2h0v10.2h-2.4V92.3h3.7l2.2,9.6h0l2.2-9.6h3.7V104.6z"/>
		<path d="M81.7,104.6H79l4.4-12.2h2.9l4.3,12.2h-2.8l-0.8-2.5h-4.5L81.7,104.6z M83.2,99.9h3.1l-1.5-4.8h0L83.2,99.9z"/>
		<path d="M94.1,100.8c0,0.7,0.4,2,2.6,2c1.2,0,2.6-0.3,2.6-1.6c0-1-0.9-1.2-2.2-1.5l-1.3-0.3c-2-0.5-3.9-0.9-3.9-3.6
			c0-1.4,0.7-3.8,4.7-3.8c3.7,0,4.8,2.5,4.8,4h-2.5c-0.1-0.5-0.3-1.8-2.5-1.8c-1,0-2.1,0.4-2.1,1.5c0,1,0.8,1.2,1.3,1.3l3,0.7
			c1.7,0.4,3.2,1.1,3.2,3.3c0,3.7-3.7,4-4.8,4c-4.5,0-5.2-2.6-5.2-4.1H94.1z"/>
		<path d="M105.4,100.8c0,0.7,0.4,2,2.6,2c1.2,0,2.6-0.3,2.6-1.6c0-1-0.9-1.2-2.2-1.5l-1.3-0.3c-2-0.5-3.9-0.9-3.9-3.6
			c0-1.4,0.7-3.8,4.7-3.8c3.7,0,4.8,2.5,4.8,4h-2.5c-0.1-0.5-0.3-1.8-2.5-1.8c-1,0-2.1,0.4-2.1,1.5c0,1,0.8,1.2,1.3,1.3l3,0.7
			c1.7,0.4,3.2,1.1,3.2,3.3c0,3.7-3.7,4-4.8,4c-4.5,0-5.2-2.6-5.2-4.1H105.4z"/>
		<path d="M124,94.5h-6.5v2.6h6v2.2h-6v3.2h6.8v2.2H115V92.3h9V94.5z"/>
		<path d="M131.5,104.6H129V94.5h-3.7v-2.2h9.9v2.2h-3.7V104.6z"/>
		<path d="M138.6,100.8c0,0.7,0.4,2,2.6,2c1.2,0,2.6-0.3,2.6-1.6c0-1-0.9-1.2-2.2-1.5l-1.3-0.3c-2-0.5-3.9-0.9-3.9-3.6
			c0-1.4,0.7-3.8,4.7-3.8c3.7,0,4.8,2.5,4.8,4h-2.5c-0.1-0.5-0.3-1.8-2.5-1.8c-1,0-2.1,0.4-2.1,1.5c0,1,0.8,1.2,1.3,1.3l3,0.7
			c1.7,0.4,3.2,1.1,3.2,3.3c0,3.7-3.7,4-4.8,4c-4.5,0-5.2-2.6-5.2-4.1H138.6z"/>
	</g>
</g>
<g transform="translate(-0.5 -0.5)" class="st2">
	<g class="st2">
		<path class="st9" d="M126.8,185.1h-0.9l3.2-9.8h0.9L126.8,185.1z"/>
		<path class="st9" d="M135.7,184.9h-1.3v-9.3h6.5v1.1h-5.2v2.9h4.6v1.1h-4.6V184.9z"/>
		<path class="st9" d="M146.5,184.9v-1l0,0c-0.5,0.8-1.1,1.2-2.2,1.2c-1,0-2.2-0.5-2.2-2.1v-4.9h1.1v4.5c0,1.1,0.6,1.5,1.3,1.5
			c1.4,0,1.9-1.3,1.9-2.3v-3.7h1.1v6.8H146.5z"/>
		<path class="st9" d="M154.9,184.9h-1.1v-4.2c0-1.2-0.3-1.8-1.5-1.8c-0.6,0-1.8,0.4-1.8,2.3v3.7h-1.1v-6.8h1.1v1h0
			c0.2-0.4,0.9-1.2,2.1-1.2c1.1,0,2.4,0.4,2.4,2.4V184.9z"/>
		<path class="st9" d="M162.2,184.9h-1.5l-2.1-3.4l-0.9,0.9v2.6h-1.1v-9.3h1.1v5.4l2.9-2.9h1.5l-2.6,2.5L162.2,184.9z"/>
		<path class="st9" d="M164.5,179v4.4c0,0.5,0.5,0.5,0.7,0.5h0.4v0.9c-0.4,0-0.7,0.1-0.9,0.1c-1.1,0-1.4-0.6-1.4-1.5V179h-0.9v-0.9
			h0.9v-1.9h1.1v1.9h1.1v0.9H164.5z"/>
		<path class="st9" d="M166.7,176.9v-1.3h1.1v1.3H166.7z M167.9,184.9h-1.1v-6.8h1.1V184.9z"/>
		<path class="st9" d="M172.3,177.9c2.2,0,3.2,1.8,3.2,3.6c0,1.8-1,3.6-3.2,3.6c-2.2,0-3.2-1.8-3.2-3.6
			C169.2,179.7,170.2,177.9,172.3,177.9z M172.3,184.1c1.6,0,2-1.7,2-2.6s-0.3-2.6-2-2.6c-1.6,0-2,1.7-2,2.6
			S170.7,184.1,172.3,184.1z"/>
		<path class="st9" d="M182.3,184.9h-1.1v-4.2c0-1.2-0.3-1.8-1.5-1.8c-0.6,0-1.8,0.4-1.8,2.3v3.7h-1.1v-6.8h1.1v1h0
			c0.2-0.4,0.9-1.2,2.1-1.2c1.1,0,2.4,0.4,2.4,2.4V184.9z"/>
		<path class="st9" d="M186.9,181.9h-3.2v-1.2h3.2V181.9z"/>
		<path class="st9" d="M194.7,175.6h1.2v9.3h-1.4l-4.7-7.5h0v7.5h-1.2v-9.3h1.5l4.7,7.5h0V175.6z"/>
	</g>
</g>
<g transform="translate(-0.5 -0.5)" class="st2">
	<g class="st2">
		<path class="st9" d="M125.1,427.7h-0.9l3.2-9.8h0.9L125.1,427.7z"/>
		<path class="st9" d="M134.1,427.5h-1.3v-9.3h6.5v1.1h-5.2v2.9h4.6v1.1h-4.6V427.5z"/>
		<path class="st9" d="M144.9,427.5v-1l0,0c-0.5,0.8-1.1,1.2-2.2,1.2c-1,0-2.2-0.5-2.2-2.1v-4.9h1.1v4.5c0,1.1,0.6,1.5,1.3,1.5
			c1.4,0,1.9-1.3,1.9-2.3v-3.7h1.1v6.8H144.9z"/>
		<path class="st9" d="M153.3,427.5h-1.1v-4.2c0-1.2-0.3-1.8-1.5-1.8c-0.6,0-1.8,0.4-1.8,2.3v3.7h-1.1v-6.8h1.1v1h0
			c0.2-0.4,0.9-1.2,2.1-1.2c1.1,0,2.4,0.4,2.4,2.4V427.5z"/>
		<path class="st9" d="M160.6,427.5h-1.5L157,424l-0.9,0.9v2.6H155v-9.3h1.1v5.4l2.9-2.9h1.5l-2.6,2.5L160.6,427.5z"/>
		<path class="st9" d="M162.8,421.6v4.4c0,0.5,0.5,0.5,0.7,0.5h0.4v0.9c-0.4,0-0.7,0.1-0.9,0.1c-1.1,0-1.4-0.6-1.4-1.5v-4.5h-0.9
			v-0.9h0.9v-1.9h1.1v1.9h1.1v0.9H162.8z"/>
		<path class="st9" d="M165.1,419.4v-1.3h1.1v1.3H165.1z M166.2,427.5h-1.1v-6.8h1.1V427.5z"/>
		<path class="st9" d="M170.7,420.5c2.2,0,3.2,1.8,3.2,3.6c0,1.8-1,3.6-3.2,3.6c-2.2,0-3.2-1.8-3.2-3.6
			C167.6,422.3,168.5,420.5,170.7,420.5z M170.7,426.7c1.6,0,2-1.7,2-2.6s-0.3-2.6-2-2.6s-2,1.7-2,2.6S169.1,426.7,170.7,426.7z"/>
		<path class="st9" d="M180.7,427.5h-1.1v-4.2c0-1.2-0.3-1.8-1.5-1.8c-0.6,0-1.8,0.4-1.8,2.3v3.7h-1.1v-6.8h1.1v1h0
			c0.2-0.4,0.9-1.2,2.1-1.2c1.1,0,2.4,0.4,2.4,2.4V427.5z"/>
		<path class="st9" d="M192.3,418.1h1.2v9.3h-1.4l-4.7-7.5h0v7.5h-1.2v-9.3h1.5l4.7,7.5h0V418.1z"/>
		<path class="st9" d="M197.9,420.9h0.9v2.8h2.8v0.9h-2.8v2.8h-0.9v-2.8h-2.8v-0.9h2.8V420.9z"/>
		<path class="st9" d="M206.8,427.5h-1.2V421h-2.1v-0.9c1.5-0.1,2.1-0.2,2.5-1.7h0.9V427.5z"/>
	</g>
</g>
<g transform="translate(-0.5 -0.5)" class="st2">
	<g class="st2">
		<path class="st10" d="M187.9,477h-0.6l2.3-7.1h0.6L187.9,477z"/>
		<path class="st10" d="M194.2,476.8h-0.9v-6.7h0.9v3.3l3.3-3.3h1.3l-2.8,2.7l2.9,4h-1.2l-2.4-3.4l-1.1,1V476.8z"/>
		<path class="st10" d="M199.4,473.4c0-1.2,0.8-1.6,2-1.6c0.4,0,1.8,0.1,1.8,1.4v2.8c0,0.2,0.1,0.3,0.3,0.3c0.1,0,0.2,0,0.3,0v0.6
			c-0.1,0-0.3,0.1-0.4,0.1c-0.7,0-0.8-0.4-0.9-0.8c-0.3,0.3-0.8,0.8-1.8,0.8c-0.9,0-1.5-0.6-1.5-1.4c0-0.4,0.1-1.4,1.5-1.5l1.4-0.2
			c0.2,0,0.4-0.1,0.4-0.6c0-0.5-0.4-0.8-1.2-0.8c-0.9,0-1.1,0.6-1.1,0.9H199.4z M202.4,474.3c-0.1,0.1-0.3,0.2-1.4,0.3
			c-0.4,0.1-1,0.2-1,0.8c0,0.5,0.3,0.9,0.9,0.9c0.8,0,1.5-0.5,1.5-1.2V474.3z"/>
		<path class="st10" d="M205.7,472.6v3.2c0,0.4,0.3,0.4,0.5,0.4h0.3v0.6c-0.3,0-0.5,0.1-0.6,0.1c-0.8,0-1-0.5-1-1v-3.2h-0.7v-0.7
			h0.7v-1.4h0.8v1.4h0.8v0.7H205.7z"/>
		<path class="st10" d="M211.4,475.3c0,0.2-0.3,0.9-0.9,1.3c-0.2,0.1-0.5,0.3-1.3,0.3c-1.4,0-2.2-1-2.2-2.5c0-1.5,0.7-2.7,2.4-2.7
			c1.4,0,2.1,1.1,2.1,2.9h-3.6c0,1,0.5,1.6,1.4,1.6c0.8,0,1.2-0.6,1.3-1H211.4z M210.7,474c0-0.8-0.4-1.5-1.4-1.5
			c-0.8,0-1.4,0.7-1.4,1.5H210.7z"/>
		<path class="st10" d="M216.6,476.4c0,0.7,0,2.5-2.3,2.5c-0.6,0-1.7-0.2-1.9-1.5h0.8c0.1,0.8,0.9,0.8,1.1,0.8
			c1.4,0,1.4-1.1,1.4-1.7v-0.2h0v0c-0.2,0.3-0.6,0.7-1.3,0.7c-1.7,0-2.2-1.6-2.2-2.7c0-1.4,0.7-2.4,2-2.4c0.9,0,1.3,0.6,1.5,0.8h0
			v-0.7h0.8V476.4z M214.4,476.3c0.5,0,1.3-0.3,1.3-1.6c0-0.8-0.1-2.1-1.3-2.1c-1.3,0-1.3,1.2-1.3,1.8
			C213.1,475.4,213.5,476.3,214.4,476.3z"/>
		<path class="st10" d="M219.7,471.8c1.6,0,2.3,1.3,2.3,2.6c0,1.3-0.7,2.6-2.3,2.6s-2.3-1.3-2.3-2.6
			C217.4,473.1,218.1,471.8,219.7,471.8z M219.7,476.3c1.2,0,1.4-1.2,1.4-1.9c0-0.7-0.2-1.9-1.4-1.9s-1.4,1.2-1.4,1.9
			C218.3,475,218.5,476.3,219.7,476.3z"/>
		<path class="st10" d="M223.9,476.8H223v-4.9h0.8v0.8h0c0.3-0.6,0.8-1,1.4-1c0.1,0,0.1,0,0.2,0v0.9h-0.3c-0.8,0-1.3,0.6-1.3,1.3
			V476.8z"/>
		<path class="st10" d="M226.2,471v-0.9h0.8v0.9H226.2z M227,476.8h-0.8v-4.9h0.8V476.8z"/>
		<path class="st10" d="M232.4,475.3c0,0.2-0.3,0.9-0.9,1.3c-0.2,0.1-0.5,0.3-1.3,0.3c-1.4,0-2.2-1-2.2-2.5c0-1.5,0.7-2.7,2.4-2.7
			c1.4,0,2.1,1.1,2.1,2.9h-3.6c0,1,0.5,1.6,1.4,1.6c0.8,0,1.2-0.6,1.3-1H232.4z M231.6,474c0-0.8-0.4-1.5-1.4-1.5
			c-0.8,0-1.4,0.7-1.4,1.5H231.6z"/>
		<path class="st10" d="M240.6,470.1h0.9v6.7h-1l-3.4-5.4h0v5.4h-0.9v-6.7h1.1l3.4,5.4h0V470.1z"/>
		<path class="st10" d="M244.6,472.1h0.7v2h2v0.7h-2v2h-0.7v-2h-2v-0.7h2V472.1z"/>
		<path class="st10" d="M251.1,476.8h-0.9v-4.7h-1.5v-0.7c1.1-0.1,1.5-0.2,1.8-1.3h0.6V476.8z"/>
	</g>
</g>
<g transform="translate(-0.5 -0.5)" class="st2">
	<g class="st2">
		<path class="st10" d="M182.7,236h-0.6l2.3-7.1h0.6L182.7,236z"/>
		<path class="st10" d="M189.1,235.9h-0.9v-6.7h0.9v3.3l3.3-3.3h1.3l-2.8,2.7l2.9,4h-1.2l-2.4-3.4l-1.1,1V235.9z"/>
		<path class="st10" d="M194.3,232.5c0-1.2,0.8-1.6,2-1.6c0.4,0,1.8,0.1,1.8,1.4v2.8c0,0.2,0.1,0.3,0.3,0.3c0.1,0,0.2,0,0.3,0v0.6
			c-0.1,0-0.3,0.1-0.4,0.1c-0.7,0-0.8-0.4-0.9-0.8c-0.3,0.3-0.8,0.8-1.8,0.8c-0.9,0-1.5-0.6-1.5-1.4c0-0.4,0.1-1.4,1.5-1.5l1.4-0.2
			c0.2,0,0.4-0.1,0.4-0.6c0-0.5-0.4-0.8-1.2-0.8c-0.9,0-1.1,0.6-1.1,0.9H194.3z M197.3,233.4c-0.1,0.1-0.3,0.2-1.4,0.3
			c-0.4,0.1-1,0.2-1,0.8c0,0.5,0.3,0.9,0.9,0.9c0.8,0,1.5-0.5,1.5-1.2V233.4z"/>
		<path class="st10" d="M200.5,231.7v3.2c0,0.4,0.3,0.4,0.5,0.4h0.3v0.6c-0.3,0-0.5,0.1-0.6,0.1c-0.8,0-1-0.5-1-1v-3.2H199V231h0.7
			v-1.4h0.8v1.4h0.8v0.7H200.5z"/>
		<path class="st10" d="M206.3,234.3c0,0.2-0.3,0.9-0.9,1.3c-0.2,0.1-0.5,0.3-1.3,0.3c-1.4,0-2.2-1-2.2-2.5c0-1.5,0.7-2.7,2.4-2.7
			c1.4,0,2.1,1.1,2.1,2.9h-3.6c0,1,0.5,1.6,1.4,1.6c0.8,0,1.2-0.6,1.3-1H206.3z M205.5,233c0-0.8-0.4-1.5-1.4-1.5
			c-0.8,0-1.4,0.7-1.4,1.5H205.5z"/>
		<path class="st10" d="M211.4,235.5c0,0.7,0,2.5-2.3,2.5c-0.6,0-1.7-0.2-1.9-1.5h0.8c0.1,0.8,0.9,0.8,1.1,0.8
			c1.4,0,1.4-1.1,1.4-1.7v-0.2h0v0c-0.2,0.3-0.6,0.7-1.3,0.7c-1.7,0-2.2-1.6-2.2-2.7c0-1.4,0.7-2.4,2-2.4c0.9,0,1.3,0.6,1.5,0.8h0
			V231h0.8V235.5z M209.3,235.3c0.5,0,1.3-0.3,1.3-1.6c0-0.8-0.1-2.1-1.3-2.1c-1.3,0-1.3,1.2-1.3,1.8
			C208,234.5,208.4,235.3,209.3,235.3z"/>
		<path class="st10" d="M214.5,230.8c1.6,0,2.3,1.3,2.3,2.6c0,1.3-0.7,2.6-2.3,2.6s-2.3-1.3-2.3-2.6
			C212.3,232.1,213,230.8,214.5,230.8z M214.5,235.3c1.2,0,1.4-1.2,1.4-1.9c0-0.7-0.2-1.9-1.4-1.9c-1.2,0-1.4,1.2-1.4,1.9
			C213.1,234.1,213.4,235.3,214.5,235.3z"/>
		<path class="st10" d="M218.7,235.9h-0.8V231h0.8v0.8h0c0.3-0.6,0.8-1,1.4-1c0.1,0,0.1,0,0.2,0v0.9H220c-0.8,0-1.3,0.6-1.3,1.3
			V235.9z"/>
		<path class="st10" d="M221,230.1v-0.9h0.8v0.9H221z M221.9,235.9H221V231h0.8V235.9z"/>
		<path class="st10" d="M227.3,234.3c0,0.2-0.3,0.9-0.9,1.3c-0.2,0.1-0.5,0.3-1.3,0.3c-1.4,0-2.2-1-2.2-2.5c0-1.5,0.7-2.7,2.4-2.7
			c1.4,0,2.1,1.1,2.1,2.9h-3.6c0,1,0.5,1.6,1.4,1.6c0.8,0,1.2-0.6,1.3-1H227.3z M226.5,233c0-0.8-0.4-1.5-1.4-1.5
			c-0.8,0-1.4,0.7-1.4,1.5H226.5z"/>
		<path class="st10" d="M235.5,229.1h0.9v6.7h-1l-3.4-5.4h0v5.4H231v-6.7h1.1l3.4,5.4h0V229.1z"/>
	</g>
</g>
<g transform="translate(-0.5 -0.5)" class="st2">
	<g class="st2">
		<path class="st10" d="M232,274.1v4.4c0,1.4-0.9,2.5-2.7,2.5c-1.8,0-2.6-1.2-2.6-2.4v-4.5h0.9v4.2c0,1.5,0.9,1.9,1.7,1.9
			c0.8,0,1.8-0.4,1.8-1.8v-4.3H232z"/>
		<path class="st10" d="M237.4,280.9h-0.8v-3c0-0.9-0.2-1.3-1-1.3c-0.5,0-1.3,0.3-1.3,1.6v2.7h-0.8V276h0.8v0.7h0
			c0.2-0.3,0.6-0.8,1.5-0.8c0.8,0,1.7,0.3,1.7,1.7V280.9z"/>
		<path class="st10" d="M239.6,276.6v3.2c0,0.4,0.3,0.4,0.5,0.4h0.3v0.6c-0.3,0-0.5,0.1-0.6,0.1c-0.8,0-1-0.5-1-1v-3.2h-0.7V276h0.7
			v-1.4h0.8v1.4h0.8v0.7H239.6z"/>
		<path class="st10" d="M245.4,279.3c0,0.2-0.3,0.9-0.9,1.3c-0.2,0.1-0.5,0.3-1.3,0.3c-1.4,0-2.2-1-2.2-2.5c0-1.5,0.7-2.7,2.4-2.7
			c1.4,0,2.1,1.1,2.1,2.9h-3.6c0,1,0.5,1.6,1.4,1.6c0.8,0,1.2-0.6,1.3-1H245.4z M244.6,278c0-0.8-0.4-1.5-1.4-1.5
			c-0.8,0-1.4,0.7-1.4,1.5H244.6z"/>
		<path class="st10" d="M247.4,280.9h-0.8V276h0.8v0.8h0c0.3-0.6,0.8-1,1.4-1c0.1,0,0.1,0,0.2,0v0.9h-0.3c-0.8,0-1.3,0.6-1.3,1.3
			V280.9z"/>
		<path class="st10" d="M253.8,280.9h-1.1l-1.5-2.5l-0.7,0.6v1.9h-0.8v-6.7h0.8v3.9l2.1-2.1h1l-1.9,1.8L253.8,280.9z"/>
		<path class="st10" d="M254.3,277.4c0-1.2,0.8-1.6,2-1.6c0.4,0,1.8,0.1,1.8,1.4v2.8c0,0.2,0.1,0.3,0.3,0.3c0.1,0,0.2,0,0.3,0v0.6
			c-0.1,0-0.3,0.1-0.4,0.1c-0.7,0-0.8-0.4-0.9-0.8c-0.3,0.3-0.8,0.8-1.8,0.8c-0.9,0-1.5-0.6-1.5-1.4c0-0.4,0.1-1.4,1.5-1.5l1.4-0.2
			c0.2,0,0.4-0.1,0.4-0.6c0-0.5-0.4-0.8-1.2-0.8c-0.9,0-1.1,0.6-1.1,0.9H254.3z M257.4,278.4c-0.1,0.1-0.3,0.2-1.4,0.3
			c-0.4,0.1-1,0.2-1,0.8c0,0.5,0.3,0.9,0.9,0.9c0.8,0,1.5-0.5,1.5-1.2V278.4z"/>
		<path class="st10" d="M260.6,276.6v3.2c0,0.4,0.3,0.4,0.5,0.4h0.3v0.6c-0.3,0-0.5,0.1-0.6,0.1c-0.8,0-1-0.5-1-1v-3.2h-0.7V276h0.7
			v-1.4h0.8v1.4h0.8v0.7H260.6z"/>
		<path class="st10" d="M266.3,279.3c0,0.2-0.3,0.9-0.9,1.3c-0.2,0.1-0.5,0.3-1.3,0.3c-1.4,0-2.2-1-2.2-2.5c0-1.5,0.7-2.7,2.4-2.7
			c1.4,0,2.1,1.1,2.1,2.9h-3.6c0,1,0.5,1.6,1.4,1.6c0.8,0,1.2-0.6,1.3-1H266.3z M265.6,278c0-0.8-0.4-1.5-1.4-1.5
			c-0.8,0-1.4,0.7-1.4,1.5H265.6z"/>
		<path class="st10" d="M271.5,280.5c0,0.7,0,2.5-2.3,2.5c-0.6,0-1.7-0.2-1.9-1.5h0.8c0.1,0.8,0.9,0.8,1.1,0.8
			c1.4,0,1.4-1.1,1.4-1.7v-0.2h0v0c-0.2,0.3-0.6,0.7-1.3,0.7c-1.7,0-2.2-1.6-2.2-2.7c0-1.4,0.7-2.4,2-2.4c0.9,0,1.3,0.6,1.5,0.8h0
			V276h0.8V280.5z M269.3,280.3c0.5,0,1.3-0.3,1.3-1.6c0-0.8-0.1-2.1-1.3-2.1c-1.3,0-1.3,1.2-1.3,1.8
			C268,279.5,268.4,280.3,269.3,280.3z"/>
		<path class="st10" d="M274.6,275.8c1.6,0,2.3,1.3,2.3,2.6c0,1.3-0.7,2.6-2.3,2.6s-2.3-1.3-2.3-2.6
			C272.3,277.1,273,275.8,274.6,275.8z M274.6,280.3c1.2,0,1.4-1.2,1.4-1.9c0-0.7-0.2-1.9-1.4-1.9s-1.4,1.2-1.4,1.9
			C273.2,279.1,273.4,280.3,274.6,280.3z"/>
		<path class="st10" d="M278.8,280.9h-0.8V276h0.8v0.8h0c0.3-0.6,0.8-1,1.4-1c0.1,0,0.1,0,0.2,0v0.9H280c-0.8,0-1.3,0.6-1.3,1.3
			V280.9z"/>
		<path class="st10" d="M281.1,275.1v-0.9h0.8v0.9H281.1z M281.9,280.9h-0.8V276h0.8V280.9z"/>
		<path class="st10" d="M287.3,279.3c0,0.2-0.3,0.9-0.9,1.3c-0.2,0.1-0.5,0.3-1.3,0.3c-1.4,0-2.2-1-2.2-2.5c0-1.5,0.7-2.7,2.4-2.7
			c1.4,0,2.1,1.1,2.1,2.9h-3.6c0,1,0.5,1.6,1.4,1.6c0.8,0,1.2-0.6,1.3-1H287.3z M286.5,278c0-0.8-0.4-1.5-1.4-1.5
			c-0.8,0-1.4,0.7-1.4,1.5H286.5z"/>
		<path class="st10" d="M295.5,274.1h0.9v6.7h-1l-3.4-5.4h0v5.4h-0.9v-6.7h1.1l3.4,5.4h0V274.1z"/>
	</g>
</g>
<g transform="translate(-0.5 -0.5)" class="st2">
	<g class="st2">
		<path class="st10" d="M286.1,318.6h3c1.3,0,1.9,0.8,1.9,1.7c0,0.4-0.2,1.1-0.9,1.4c0.4,0.2,1.2,0.5,1.2,1.6c0,1.1-0.8,2-2.3,2
			h-2.9V318.6z M287,321.5h1.6c0.9,0,1.4-0.3,1.4-1.1c0-0.6-0.4-1-1.4-1H287V321.5z M287,324.6h1.9c0.9,0,1.4-0.5,1.4-1.2
			c0-0.9-0.8-1.1-1.6-1.1H287V324.6z"/>
		<path class="st10" d="M292.3,319.6v-0.9h0.8v0.9H292.3z M293.1,325.4h-0.8v-4.9h0.8V325.4z"/>
		<path class="st10" d="M295.2,325.4h-0.8v-6.7h0.8V325.4z"/>
		<path class="st10" d="M300.5,325.4h-0.8v-0.7h0c-0.4,0.7-0.9,0.8-1.4,0.8c-1.7,0-2.2-1.6-2.2-2.7c0-1.4,0.7-2.4,2-2.4
			c0.9,0,1.3,0.6,1.5,0.8l0-0.1v-2.5h0.8V325.4z M298.4,324.8c0.5,0,1.3-0.3,1.3-1.7c0-0.8-0.1-2.1-1.3-2.1c-1.3,0-1.3,1.2-1.3,1.8
			C297,324,297.5,324.8,298.4,324.8z"/>
		<path class="st10" d="M305.8,323.8c0,0.2-0.3,0.9-0.9,1.3c-0.2,0.1-0.5,0.3-1.3,0.3c-1.4,0-2.2-1-2.2-2.5c0-1.5,0.7-2.7,2.4-2.7
			c1.4,0,2.1,1.1,2.1,2.9h-3.6c0,1,0.5,1.6,1.4,1.6c0.8,0,1.2-0.6,1.3-1H305.8z M305.1,322.5c0-0.8-0.4-1.5-1.4-1.5
			c-0.8,0-1.4,0.7-1.4,1.5H305.1z"/>
		<path class="st10" d="M307.8,325.4H307v-4.9h0.8v0.8h0c0.3-0.6,0.8-1,1.4-1c0.1,0,0.1,0,0.2,0v0.9h-0.3c-0.8,0-1.3,0.6-1.3,1.3
			V325.4z"/>
	</g>
</g>
<g transform="translate(-0.5 -0.5)" class="st2">
	<g class="st2">
		<path class="st10" d="M283.7,347.8h2.7c1.8,0,2.8,1.3,2.8,3.3c0,1.5-0.7,3.5-2.9,3.5h-2.7V347.8z M284.6,353.7h1.8
			c1.2,0,1.9-0.9,1.9-2.6c0-1.7-0.8-2.5-2-2.5h-1.7V353.7z"/>
		<path class="st10" d="M292.3,349.5c1.6,0,2.3,1.3,2.3,2.6c0,1.3-0.7,2.6-2.3,2.6s-2.3-1.3-2.3-2.6
			C290,350.8,290.7,349.5,292.3,349.5z M292.3,353.9c1.2,0,1.4-1.2,1.4-1.9c0-0.7-0.2-1.9-1.4-1.9c-1.2,0-1.4,1.2-1.4,1.9
			C290.9,352.7,291.1,353.9,292.3,353.9z"/>
		<path class="st10" d="M299.6,354.5h-1.1L297,352l-0.7,0.6v1.9h-0.8v-6.7h0.8v3.9l2.1-2.1h1l-1.9,1.8L299.6,354.5z"/>
		<path class="st10" d="M303.4,354.5v-0.7l0,0c-0.3,0.6-0.8,0.9-1.6,0.9c-0.7,0-1.6-0.3-1.6-1.5v-3.5h0.8v3.3c0,0.8,0.4,1.1,0.9,1.1
			c1,0,1.3-0.9,1.3-1.6v-2.7h0.8v4.9H303.4z"/>
		<path class="st10" d="M305.4,349.6h0.8v0.7h0c0.2-0.3,0.6-0.8,1.5-0.8c0.9,0,1.2,0.5,1.3,0.8c0.4-0.5,0.7-0.8,1.5-0.8
			c0.5,0,1.5,0.3,1.5,1.6v3.4h-0.8v-3.2c0-0.7-0.2-1.1-0.9-1.1c-0.7,0-1.2,0.7-1.2,1.3v3h-0.8v-3.4c0-0.4-0.2-0.9-0.8-0.9
			c-0.5,0-1.3,0.3-1.3,1.6v2.7h-0.8V349.6z"/>
		<path class="st10" d="M317.4,353c0,0.2-0.3,0.9-0.9,1.3c-0.2,0.1-0.5,0.3-1.3,0.3c-1.4,0-2.2-1-2.2-2.5c0-1.5,0.7-2.7,2.4-2.7
			c1.4,0,2.1,1.1,2.1,2.9h-3.6c0,1,0.5,1.6,1.4,1.6c0.8,0,1.2-0.6,1.3-1H317.4z M316.6,351.7c0-0.8-0.4-1.5-1.4-1.5
			c-0.8,0-1.4,0.7-1.4,1.5H316.6z"/>
		<path class="st10" d="M322.4,354.5h-0.8v-3c0-0.9-0.2-1.3-1-1.3c-0.5,0-1.3,0.3-1.3,1.6v2.7h-0.8v-4.9h0.8v0.7h0
			c0.2-0.3,0.6-0.8,1.5-0.8c0.8,0,1.7,0.3,1.7,1.7V354.5z"/>
		<path class="st10" d="M324.6,350.3v3.2c0,0.4,0.3,0.4,0.5,0.4h0.3v0.6c-0.3,0-0.5,0.1-0.6,0.1c-0.8,0-1-0.5-1-1v-3.2h-0.7v-0.7
			h0.7v-1.4h0.8v1.4h0.8v0.7H324.6z"/>
		<path class="st10" d="M330.4,353c0,0.2-0.3,0.9-0.9,1.3c-0.2,0.1-0.5,0.3-1.3,0.3c-1.4,0-2.2-1-2.2-2.5c0-1.5,0.7-2.7,2.4-2.7
			c1.4,0,2.1,1.1,2.1,2.9h-3.6c0,1,0.5,1.6,1.4,1.6c0.8,0,1.2-0.6,1.3-1H330.4z M329.6,351.7c0-0.8-0.4-1.5-1.4-1.5
			c-0.8,0-1.4,0.7-1.4,1.5H329.6z"/>
	</g>
</g>
<g transform="translate(-0.5 -0.5)" class="st2">
	<g class="st2">
		<path class="st10" d="M285.4,380.7l-0.7,2h-0.9l2.5-6.7h1l2.4,6.7h-1l-0.7-2H285.4z M287.8,379.9l-1-3h0l-1.1,3H287.8z"/>
		<path class="st10" d="M294.5,382.7h-0.8v-3c0-0.9-0.2-1.3-1-1.3c-0.5,0-1.3,0.3-1.3,1.6v2.7h-0.8v-4.9h0.8v0.7h0
			c0.2-0.3,0.6-0.8,1.5-0.8c0.8,0,1.7,0.3,1.7,1.7V382.7z"/>
		<path class="st10" d="M299.8,382.7H299V382h0c-0.4,0.7-0.9,0.8-1.4,0.8c-1.7,0-2.2-1.6-2.2-2.7c0-1.4,0.7-2.4,2-2.4
			c0.9,0,1.3,0.6,1.5,0.8l0-0.1v-2.5h0.8V382.7z M297.6,382.1c0.5,0,1.3-0.3,1.3-1.6c0-0.8-0.1-2.1-1.3-2.1c-1.3,0-1.3,1.2-1.3,1.8
			C296.3,381.3,296.7,382.1,297.6,382.1z"/>
		<path class="st10" d="M305.1,381.1c0,0.2-0.3,0.9-0.9,1.3c-0.2,0.1-0.5,0.3-1.3,0.3c-1.4,0-2.2-1-2.2-2.5c0-1.5,0.7-2.7,2.4-2.7
			c1.4,0,2.1,1.1,2.1,2.9h-3.6c0,1,0.5,1.6,1.4,1.6c0.8,0,1.2-0.6,1.3-1H305.1z M304.3,379.8c0-0.8-0.4-1.5-1.4-1.5
			c-0.8,0-1.4,0.7-1.4,1.5H304.3z"/>
		<path class="st10" d="M307.1,382.7h-0.8v-4.9h0.8v0.8h0c0.3-0.6,0.8-1,1.4-1c0.1,0,0.2,0,0.2,0v0.9h-0.3c-0.8,0-1.3,0.6-1.3,1.3
			V382.7z"/>
		<path class="st10" d="M313.4,381.1c0,0.2-0.3,0.9-0.9,1.3c-0.2,0.1-0.5,0.3-1.3,0.3c-1.4,0-2.2-1-2.2-2.5c0-1.5,0.7-2.7,2.4-2.7
			c1.4,0,2.1,1.1,2.1,2.9h-3.6c0,1,0.5,1.6,1.4,1.6c0.8,0,1.2-0.6,1.3-1H313.4z M312.7,379.8c0-0.8-0.4-1.5-1.4-1.5
			c-0.8,0-1.4,0.7-1.4,1.5H312.7z"/>
		<path class="st10" d="M322.7,382.7v-4c0-0.2,0-1,0-1.7h0l-1.9,5.6H320l-1.9-5.6h0c0,0.6,0,1.5,0,1.7v4h-0.9v-6.7h1.3l1.9,5.7h0
			l1.9-5.7h1.3v6.7H322.7z"/>
		<path class="st10" d="M328.1,382.7v-0.7l0,0c-0.3,0.6-0.8,0.9-1.6,0.9c-0.7,0-1.6-0.3-1.6-1.5v-3.5h0.8v3.3c0,0.8,0.4,1.1,0.9,1.1
			c1,0,1.3-0.9,1.3-1.6v-2.7h0.8v4.9H328.1z"/>
		<path class="st10" d="M332.9,379.2c0-0.3-0.1-0.8-1.2-0.8c-0.3,0-1,0.1-1,0.7c0,0.4,0.3,0.5,0.9,0.7l0.8,0.2
			c1,0.3,1.4,0.6,1.4,1.3c0,1-0.8,1.6-1.9,1.6c-1.9,0-2.1-1.1-2.1-1.7h0.8c0,0.4,0.1,1,1.3,1c0.6,0,1.1-0.2,1.1-0.8
			c0-0.4-0.3-0.5-1-0.7l-1-0.2c-0.7-0.2-1.1-0.5-1.1-1.2c0-1.1,0.9-1.6,1.9-1.6c1.8,0,1.9,1.3,1.9,1.5H332.9z"/>
		<path class="st10" d="M335.8,378.4v3.2c0,0.4,0.3,0.4,0.5,0.4h0.3v0.6c-0.3,0-0.5,0.1-0.6,0.1c-0.8,0-1-0.5-1-1v-3.2h-0.7v-0.7
			h0.7v-1.4h0.8v1.4h0.8v0.7H335.8z"/>
		<path class="st10" d="M341.6,381.1c0,0.2-0.3,0.9-0.9,1.3c-0.2,0.1-0.5,0.3-1.3,0.3c-1.4,0-2.2-1-2.2-2.5c0-1.5,0.7-2.7,2.4-2.7
			c1.4,0,2.1,1.1,2.1,2.9h-3.6c0,1,0.5,1.6,1.4,1.6c0.8,0,1.2-0.6,1.3-1H341.6z M340.8,379.8c0-0.8-0.4-1.5-1.4-1.5
			c-0.8,0-1.4,0.7-1.4,1.5H340.8z"/>
		<path class="st10" d="M343.6,382.7h-0.8v-4.9h0.8v0.8h0c0.3-0.6,0.8-1,1.4-1c0.1,0,0.1,0,0.2,0v0.9h-0.3c-0.8,0-1.3,0.6-1.3,1.3
			V382.7z"/>
	</g>
</g>
<path class="st7" d="M544.8,106.1v363.6c0,0,0,12.1,7.6,12.1c7.6,0,17.6,0,17.6,0"/>
<path class="st7" d="M544.8,140.9c0,0-2.4,14.7,9.4,14.4h6.5h9.8"/>
<polyline class="st7" points="612,171.2 612,302.6 626.7,302.6 "/>
<line class="st7" x1="612" y1="199.8" x2="622.1" y2="199.8"/>
<polyline class="st7" points="651.6,209.2 651.6,239.2 666.5,239.2 "/>
<polyline class="st7" points="694.8,247.8 694.8,278.6 709.2,278.6 "/>
<polyline class="st7" points="651.6,312.3 651.6,341.5 662.7,341.5 "/>
<polyline class="st7" points="694.8,351.4 694.8,444.4 707.3,444.4 "/>
<line class="st7" x1="694.8" y1="380.4" x2="707.8" y2="380.4"/>
<polyline class="st7" points="738,390.3 738,420.2 752.8,420.2 "/>
<g class="st2">
	<rect x="462.7" y="55.5" class="st3" width="164.2" height="54.4"/>
	<path class="st4" d="M624.4,58v49.4H465.2V58H624.4 M629.4,53h-5H465.2h-5v5v49.4v5h5h159.2h5v-5V58V53L629.4,53z"/>
</g>
<g class="st2">
	<rect x="620.7" y="190" class="st8" width="61.7" height="19.6"/>
	<path class="st3" d="M681.2,191.2v17.1H622v-17.1H681.2 M683.7,188.7h-2.5H622h-2.5v2.5v17.1v2.5h2.5h59.2h2.5v-2.5v-17.1V188.7
		L683.7,188.7z"/>
</g>
<g class="st2">
	<rect x="661.5" y="229.4" class="st8" width="66.6" height="19.6"/>
	<path class="st3" d="M726.8,230.6v17.1h-64.1v-17.1H726.8 M729.3,228.1h-2.5h-64.1h-2.5v2.5v17.1v2.5h2.5h64.1h2.5v-2.5v-17.1
		V228.1L729.3,228.1z"/>
</g>
<g class="st2">
	<rect x="704.7" y="268.8" class="st8" width="64.6" height="19.6"/>
	<path class="st3" d="M768.1,270v17.1H706V270H768.1 M770.6,267.5h-2.5H706h-2.5v2.5v17.1v2.5h2.5h62.1h2.5v-2.5V270V267.5
		L770.6,267.5z"/>
</g>
<g class="st2">
	<rect x="620.9" y="292.8" class="st8" width="60.8" height="19.6"/>
	<path class="st3" d="M680.4,294v17.1h-58.3V294H680.4 M682.9,291.5h-2.5h-58.3h-2.5v2.5v17.1v2.5h2.5h58.3h2.5v-2.5V294V291.5
		L682.9,291.5z"/>
</g>
<g class="st2">
	<rect x="660.9" y="331.7" class="st8" width="67.2" height="19.6"/>
	<path class="st3" d="M726.8,332.9v17.1h-64.7v-17.1H726.8 M729.3,330.4h-2.5h-64.7h-2.5v2.5v17.1v2.5h2.5h64.7h2.5v-2.5v-17.1
		V330.4L729.3,330.4z"/>
</g>
<g class="st2">
	<rect x="704.4" y="370.6" class="st11" width="77.2" height="19.6"/>
	<path class="st3" d="M780.3,371.9V389h-74.7v-17.1H780.3 M782.8,369.4h-2.5h-74.7h-2.5v2.5V389v2.5h2.5h74.7h2.5V389v-17.1V369.4
		L782.8,369.4z"/>
</g>
<g class="st2">
	<rect x="748.5" y="410.4" class="st11" width="96.9" height="19.6"/>
	<path class="st3" d="M844.1,411.6v17.1h-94.4v-17.1H844.1 M846.6,409.1h-2.5h-94.4h-2.5v2.5v17.1v2.5h2.5h94.4h2.5v-2.5v-17.1
		V409.1L846.6,409.1z"/>
</g>
<g class="st2">
	<rect x="704.4" y="434.6" class="st11" width="50.9" height="19.6"/>
	<path class="st3" d="M754,435.9V453h-48.4v-17.1H754 M756.5,433.4H754h-48.4h-2.5v2.5V453v2.5h2.5H754h2.5V453v-17.1V433.4
		L756.5,433.4z"/>
</g>
<g transform="translate(-0.5 -0.5)">
	<g class="st2">
		<path d="M493,89.8h-2.7l4.4-12.2h2.9l4.3,12.2h-2.8l-0.8-2.5h-4.5L493,89.8z M494.5,85.2h3.1l-1.5-4.8h0L494.5,85.2z"/>
		<path d="M512.5,79.7H506v2.6h6v2.2h-6v3.2h6.8v2.2h-9.3V77.6h9V79.7z"/>
		<path d="M526.6,89.8h-2.4V79.6h0l-2.3,10.2h-2.5l-2.2-10.2h0v10.2h-2.4V77.6h3.7l2.2,9.6h0l2.2-9.6h3.7V89.8z"/>
		<path d="M535.5,89.8h-2.7l4.4-12.2h2.9l4.3,12.2h-2.8l-0.8-2.5h-4.5L535.5,89.8z M537.1,85.2h3.1l-1.5-4.8h0L537.1,85.2z"/>
		<path d="M547.9,86c0,0.7,0.4,2,2.6,2c1.2,0,2.6-0.3,2.6-1.6c0-1-0.9-1.2-2.2-1.5l-1.3-0.3c-2-0.5-3.9-0.9-3.9-3.6
			c0-1.4,0.7-3.8,4.7-3.8c3.7,0,4.8,2.5,4.8,4h-2.5c-0.1-0.5-0.3-1.8-2.5-1.8c-1,0-2.1,0.4-2.1,1.5c0,1,0.8,1.2,1.3,1.3l3,0.7
			c1.7,0.4,3.2,1.1,3.2,3.3c0,3.7-3.7,4-4.8,4c-4.5,0-5.2-2.6-5.2-4.1H547.9z"/>
		<path d="M559.3,86c0,0.7,0.4,2,2.6,2c1.2,0,2.6-0.3,2.6-1.6c0-1-0.9-1.2-2.2-1.5l-1.3-0.3c-2-0.5-3.9-0.9-3.9-3.6
			c0-1.4,0.7-3.8,4.7-3.8c3.7,0,4.8,2.5,4.8,4H564c-0.1-0.5-0.3-1.8-2.5-1.8c-1,0-2.1,0.4-2.1,1.5c0,1,0.8,1.2,1.3,1.3l3,0.7
			c1.7,0.4,3.2,1.1,3.2,3.3c0,3.7-3.7,4-4.8,4c-4.5,0-5.2-2.6-5.2-4.1H559.3z"/>
		<path d="M577.8,79.7h-6.5v2.6h6v2.2h-6v3.2h6.8v2.2h-9.3V77.6h9V79.7z"/>
		<path d="M585.4,89.8h-2.6V79.7h-3.7v-2.2h9.9v2.2h-3.7V89.8z"/>
		<path d="M592.4,86c0,0.7,0.4,2,2.6,2c1.2,0,2.6-0.3,2.6-1.6c0-1-0.9-1.2-2.2-1.5l-1.3-0.3c-2-0.5-3.9-0.9-3.9-3.6
			c0-1.4,0.7-3.8,4.7-3.8c3.7,0,4.8,2.5,4.8,4h-2.5c-0.1-0.5-0.3-1.8-2.5-1.8c-1,0-2.1,0.4-2.1,1.5c0,1,0.8,1.2,1.3,1.3l3,0.7
			c1.7,0.4,3.2,1.1,3.2,3.3c0,3.7-3.7,4-4.8,4c-4.5,0-5.2-2.6-5.2-4.1H592.4z"/>
	</g>
</g>
<g>
	<rect x="565.1" y="465.7" class="st0" width="105.7" height="32.3"/>
	<path class="st4" d="M669.8,466.7v30.3H566.1v-30.3H669.8 M671.8,464.7h-2H566.1h-2v2v30.3v2h2h103.7h2v-2v-30.3V464.7L671.8,464.7
		z"/>
</g>
<g transform="translate(-0.5 -0.5)" class="st2">
	<g class="st2">
		<path class="st9" d="M576.6,487.2h-0.9l3.2-9.8h0.9L576.6,487.2z"/>
		<path class="st9" d="M585.6,486.9h-1.3v-9.3h6.5v1.1h-5.2v2.9h4.6v1.1h-4.6V486.9z"/>
		<path class="st9" d="M596.4,486.9v-1l0,0c-0.5,0.8-1.1,1.2-2.2,1.2c-1,0-2.2-0.5-2.2-2.1v-4.9h1.1v4.5c0,1.1,0.6,1.5,1.3,1.5
			c1.4,0,1.9-1.3,1.9-2.3v-3.7h1.1v6.8H596.4z"/>
		<path class="st9" d="M604.8,486.9h-1.1v-4.2c0-1.2-0.3-1.8-1.5-1.8c-0.6,0-1.8,0.4-1.8,2.3v3.7h-1.1v-6.8h1.1v1h0
			c0.2-0.4,0.9-1.2,2.1-1.2c1.1,0,2.4,0.4,2.4,2.4V486.9z"/>
		<path class="st9" d="M612.1,486.9h-1.5l-2.1-3.4l-0.9,0.9v2.6h-1.1v-9.3h1.1v5.4l2.9-2.9h1.5l-2.6,2.5L612.1,486.9z"/>
		<path class="st9" d="M614.3,481.1v4.4c0,0.5,0.5,0.5,0.7,0.5h0.4v0.9c-0.4,0-0.7,0.1-0.9,0.1c-1.1,0-1.4-0.6-1.4-1.5v-4.5h-0.9
			v-0.9h0.9v-1.9h1.1v1.9h1.1v0.9H614.3z"/>
		<path class="st9" d="M616.6,478.9v-1.3h1.1v1.3H616.6z M617.7,486.9h-1.1v-6.8h1.1V486.9z"/>
		<path class="st9" d="M622.2,480c2.2,0,3.2,1.8,3.2,3.6c0,1.8-1,3.6-3.2,3.6s-3.2-1.8-3.2-3.6C619.1,481.8,620,480,622.2,480z
			 M622.2,486.1c1.6,0,2-1.7,2-2.6s-0.3-2.6-2-2.6c-1.6,0-2,1.7-2,2.6S620.6,486.1,622.2,486.1z"/>
		<path class="st9" d="M632.2,486.9h-1.1v-4.2c0-1.2-0.3-1.8-1.5-1.8c-0.7,0-1.8,0.4-1.8,2.3v3.7h-1.1v-6.8h1.1v1h0
			c0.2-0.4,0.9-1.2,2.1-1.2c1.1,0,2.4,0.4,2.4,2.4V486.9z"/>
		<path class="st9" d="M643.8,477.6h1.2v9.3h-1.4l-4.7-7.5h0v7.5h-1.2v-9.3h1.5l4.7,7.5h0V477.6z"/>
		<path class="st9" d="M649.4,480.4h0.9v2.8h2.8v0.9h-2.8v2.8h-0.9v-2.8h-2.8v-0.9h2.8V480.4z"/>
		<path class="st9" d="M658.3,486.9h-1.2v-6.5H655v-0.9c1.5-0.1,2.1-0.2,2.5-1.7h0.9V486.9z"/>
	</g>
</g>
<g>
	<rect x="565.1" y="139.2" class="st0" width="93.8" height="32.3"/>
	<path class="st4" d="M657.9,140.2v30.3h-91.8v-30.3H657.9 M659.9,138.2h-2h-91.8h-2v2v30.3v2h2h91.8h2v-2v-30.3V138.2L659.9,138.2z
		"/>
</g>
<g transform="translate(-0.5 -0.5)" class="st2">
	<g class="st2">
		<path class="st9" d="M577.8,160.4h-0.9l3.2-9.8h0.9L577.8,160.4z"/>
		<path class="st9" d="M586.7,160.2h-1.3v-9.3h6.5v1.1h-5.2v2.9h4.6v1.1h-4.6V160.2z"/>
		<path class="st9" d="M597.6,160.2v-1l0,0c-0.5,0.8-1.1,1.2-2.2,1.2c-1,0-2.2-0.5-2.2-2.1v-4.9h1.1v4.5c0,1.1,0.6,1.5,1.3,1.5
			c1.4,0,1.9-1.3,1.9-2.3v-3.7h1.1v6.8H597.6z"/>
		<path class="st9" d="M605.9,160.2h-1.1V156c0-1.2-0.3-1.8-1.5-1.8c-0.6,0-1.8,0.4-1.8,2.3v3.7h-1.1v-6.8h1.1v1h0
			c0.2-0.4,0.9-1.2,2.1-1.2c1.1,0,2.4,0.4,2.4,2.4V160.2z"/>
		<path class="st9" d="M613.2,160.2h-1.5l-2.1-3.4l-0.9,0.9v2.6h-1.1v-9.3h1.1v5.4l2.9-2.9h1.5l-2.6,2.5L613.2,160.2z"/>
		<path class="st9" d="M615.5,154.3v4.4c0,0.5,0.5,0.5,0.7,0.5h0.4v0.9c-0.4,0-0.7,0.1-0.9,0.1c-1.1,0-1.4-0.6-1.4-1.5v-4.5h-0.9
			v-0.9h0.9v-1.9h1.1v1.9h1.1v0.9H615.5z"/>
		<path class="st9" d="M617.7,152.1v-1.3h1.1v1.3H617.7z M618.9,160.2h-1.1v-6.8h1.1V160.2z"/>
		<path class="st9" d="M623.3,153.2c2.2,0,3.2,1.8,3.2,3.6c0,1.8-1,3.6-3.2,3.6c-2.2,0-3.2-1.8-3.2-3.6
			C620.2,155,621.2,153.2,623.3,153.2z M623.3,159.4c1.6,0,2-1.7,2-2.6s-0.3-2.6-2-2.6c-1.6,0-2,1.7-2,2.6S621.7,159.4,623.3,159.4z
			"/>
		<path class="st9" d="M633.3,160.2h-1.1V156c0-1.2-0.3-1.8-1.5-1.8c-0.6,0-1.8,0.4-1.8,2.3v3.7h-1.1v-6.8h1.1v1h0
			c0.2-0.4,0.9-1.2,2.1-1.2c1.1,0,2.4,0.4,2.4,2.4V160.2z"/>
		<path class="st9" d="M637.9,157.2h-3.2V156h3.2V157.2z"/>
		<path class="st9" d="M645.7,150.8h1.2v9.3h-1.4l-4.7-7.5h0v7.5h-1.2v-9.3h1.5l4.7,7.5h0V150.8z"/>
	</g>
</g>
<g>
	<g>
		<path class="st0" d="M612,182.6c-2.6,0-4.7-2.1-4.7-4.7c0-2.6,2.1-4.7,4.7-4.7s4.7,2.1,4.7,4.7C616.7,180.5,614.6,182.6,612,182.6
			z"/>
		<path class="st4" d="M612,173.6c2.3,0,4.2,1.9,4.2,4.2c0,2.3-1.9,4.2-4.2,4.2s-4.2-1.9-4.2-4.2C607.8,175.5,609.7,173.6,612,173.6
			 M612,172.6c-2.9,0-5.2,2.3-5.2,5.2s2.3,5.2,5.2,5.2c2.9,0,5.2-2.3,5.2-5.2S614.9,172.6,612,172.6L612,172.6z"/>
	</g>
	<g transform="translate(-0.5 -0.5)">
		<g class="st2">
			<path d="M614,178.9H611v-1.1h2.9V178.9z"/>
		</g>
	</g>
</g>
<g>
	<g>
		<path class="st0" d="M651.6,221.5c-2.6,0-4.7-2.1-4.7-4.7c0-2.6,2.1-4.7,4.7-4.7s4.7,2.1,4.7,4.7
			C656.3,219.4,654.2,221.5,651.6,221.5z"/>
		<path class="st4" d="M651.6,212.6c2.3,0,4.2,1.9,4.2,4.2c0,2.3-1.9,4.2-4.2,4.2c-2.3,0-4.2-1.9-4.2-4.2
			C647.3,214.4,649.2,212.6,651.6,212.6 M651.6,211.6c-2.9,0-5.2,2.3-5.2,5.2s2.3,5.2,5.2,5.2c2.9,0,5.2-2.3,5.2-5.2
			S654.5,211.6,651.6,211.6L651.6,211.6z"/>
	</g>
	<g transform="translate(-0.5 -0.5)">
		<g class="st2">
			<path d="M653.5,217.8h-2.9v-1.1h2.9V217.8z"/>
		</g>
	</g>
</g>
<g>
	<g>
		<path class="st0" d="M694.8,260.8c-2.6,0-4.7-2.1-4.7-4.7c0-2.6,2.1-4.7,4.7-4.7s4.7,2.1,4.7,4.7
			C699.5,258.7,697.4,260.8,694.8,260.8z"/>
		<path class="st4" d="M694.8,251.8c2.3,0,4.2,1.9,4.2,4.2c0,2.3-1.9,4.2-4.2,4.2s-4.2-1.9-4.2-4.2
			C690.6,253.7,692.5,251.8,694.8,251.8 M694.8,250.8c-2.9,0-5.2,2.3-5.2,5.2s2.3,5.2,5.2,5.2c2.9,0,5.2-2.3,5.2-5.2
			S697.7,250.8,694.8,250.8L694.8,250.8z"/>
	</g>
	<g transform="translate(-0.5 -0.5)">
		<g class="st2">
			<path d="M696.8,257.1h-2.9V256h2.9V257.1z"/>
		</g>
	</g>
</g>
<g>
	<g>
		<path class="st0" d="M651.3,324.2c-2.6,0-4.7-2.1-4.7-4.7c0-2.6,2.1-4.7,4.7-4.7s4.7,2.1,4.7,4.7C656,322,653.9,324.2,651.3,324.2
			z"/>
		<path class="st4" d="M651.3,315.2c2.3,0,4.2,1.9,4.2,4.2c0,2.3-1.9,4.2-4.2,4.2s-4.2-1.9-4.2-4.2
			C647,317.1,648.9,315.2,651.3,315.2 M651.3,314.2c-2.9,0-5.2,2.3-5.2,5.2s2.3,5.2,5.2,5.2c2.9,0,5.2-2.3,5.2-5.2
			S654.1,314.2,651.3,314.2L651.3,314.2z"/>
	</g>
	<g transform="translate(-0.5 -0.5)">
		<g class="st2">
			<path d="M653.2,320.5h-2.9v-1.1h2.9V320.5z"/>
		</g>
	</g>
</g>
<g>
	<g>
		<path class="st0" d="M694.8,363c-2.6,0-4.7-2.1-4.7-4.7c0-2.6,2.1-4.7,4.7-4.7s4.7,2.1,4.7,4.7C699.5,360.9,697.4,363,694.8,363z"
			/>
		<path class="st4" d="M694.8,354c2.3,0,4.2,1.9,4.2,4.2c0,2.3-1.9,4.2-4.2,4.2s-4.2-1.9-4.2-4.2C690.6,355.9,692.5,354,694.8,354
			 M694.8,353c-2.9,0-5.2,2.3-5.2,5.2s2.3,5.2,5.2,5.2c2.9,0,5.2-2.3,5.2-5.2S697.7,353,694.8,353L694.8,353z"/>
	</g>
	<g transform="translate(-0.5 -0.5)">
		<g class="st2">
			<path d="M696.8,359.3h-2.9v-1.1h2.9V359.3z"/>
		</g>
	</g>
</g>
<g>
	<g>
		<path class="st0" d="M738,402.6c-2.6,0-4.7-2.1-4.7-4.7c0-2.6,2.1-4.7,4.7-4.7s4.7,2.1,4.7,4.7C742.7,400.5,740.6,402.6,738,402.6
			z"/>
		<path class="st4" d="M738,393.7c2.3,0,4.2,1.9,4.2,4.2c0,2.3-1.9,4.2-4.2,4.2s-4.2-1.9-4.2-4.2C733.7,395.6,735.6,393.7,738,393.7
			 M738,392.7c-2.9,0-5.2,2.3-5.2,5.2s2.3,5.2,5.2,5.2c2.9,0,5.2-2.3,5.2-5.2S740.9,392.7,738,392.7L738,392.7z"/>
	</g>
	<g transform="translate(-0.5 -0.5)">
		<g class="st2">
			<path d="M739.9,398.9H737v-1.1h2.9V398.9z"/>
		</g>
	</g>
</g>
<g transform="translate(-0.5 -0.5)" class="st2">
	<g class="st2">
		<path class="st10" d="M628.1,203.5h-0.6l2.3-7.1h0.6L628.1,203.5z"/>
		<path class="st10" d="M634.6,203.3h-0.9v-6.7h3c1.2,0,2,0.8,2,1.9c0,0.9-0.5,2-2,2h-2.1V203.3z M634.6,199.7h1.8
			c0.8,0,1.4-0.3,1.4-1.2c0-0.9-0.6-1.1-1.3-1.1h-1.8V199.7z"/>
		<path class="st10" d="M640.7,203.3h-0.8v-4.9h0.8v0.8h0c0.3-0.6,0.8-1,1.4-1c0.1,0,0.1,0,0.2,0v0.9h-0.3c-0.8,0-1.3,0.6-1.3,1.3
			V203.3z"/>
		<path class="st10" d="M644.9,198.2c1.6,0,2.3,1.3,2.3,2.6c0,1.3-0.7,2.6-2.3,2.6s-2.3-1.3-2.3-2.6
			C642.6,199.6,643.3,198.2,644.9,198.2z M644.9,202.7c1.2,0,1.4-1.2,1.4-1.9c0-0.7-0.2-1.9-1.4-1.9s-1.4,1.2-1.4,1.9
			C643.4,201.5,643.7,202.7,644.9,202.7z"/>
		<path class="st10" d="M652.2,202.9c0,0.7,0,2.5-2.3,2.5c-0.6,0-1.7-0.2-1.9-1.5h0.8c0.2,0.8,0.9,0.8,1.1,0.8
			c1.4,0,1.4-1.1,1.4-1.7v-0.2h0v0c-0.2,0.3-0.6,0.7-1.3,0.7c-1.7,0-2.2-1.6-2.2-2.7c0-1.4,0.7-2.4,2-2.4c0.9,0,1.3,0.6,1.5,0.8h0
			v-0.7h0.8V202.9z M650,202.7c0.5,0,1.3-0.3,1.3-1.6c0-0.8-0.1-2.1-1.3-2.1c-1.3,0-1.3,1.2-1.3,1.8
			C648.7,201.9,649.1,202.7,650,202.7z"/>
		<path class="st10" d="M654.1,203.3h-0.8v-4.9h0.8v0.8h0c0.3-0.6,0.8-1,1.4-1c0.1,0,0.2,0,0.2,0v0.9h-0.3c-0.8,0-1.3,0.6-1.3,1.3
			V203.3z"/>
		<path class="st10" d="M656.2,199.9c0-1.2,0.8-1.6,2-1.6c0.4,0,1.8,0.1,1.8,1.4v2.8c0,0.2,0.1,0.3,0.3,0.3c0.1,0,0.2,0,0.3,0v0.6
			c-0.1,0-0.3,0.1-0.5,0.1c-0.7,0-0.8-0.4-0.9-0.8c-0.3,0.3-0.8,0.8-1.8,0.8c-0.9,0-1.5-0.6-1.5-1.4c0-0.4,0.1-1.4,1.5-1.5l1.4-0.2
			c0.2,0,0.4-0.1,0.4-0.6c0-0.5-0.4-0.8-1.2-0.8c-0.9,0-1.1,0.6-1.1,0.9H656.2z M659.2,200.8c-0.1,0.1-0.3,0.2-1.4,0.3
			c-0.4,0.1-1,0.2-1,0.8c0,0.5,0.3,0.9,0.9,0.9c0.8,0,1.5-0.5,1.5-1.2V200.8z"/>
		<path class="st10" d="M661.4,198.4h0.8v0.7h0c0.2-0.3,0.6-0.8,1.5-0.8s1.2,0.5,1.3,0.8c0.4-0.5,0.7-0.8,1.5-0.8
			c0.5,0,1.5,0.3,1.5,1.6v3.4h-0.8v-3.2c0-0.7-0.2-1.1-0.9-1.1c-0.7,0-1.2,0.7-1.2,1.3v3h-0.8v-3.4c0-0.4-0.2-0.9-0.8-0.9
			c-0.5,0-1.3,0.3-1.3,1.6v2.7h-0.8V198.4z"/>
		<path class="st10" d="M669.3,198.4h0.8v0.7h0c0.2-0.3,0.6-0.8,1.5-0.8c0.9,0,1.2,0.5,1.3,0.8c0.4-0.5,0.7-0.8,1.5-0.8
			c0.5,0,1.5,0.3,1.5,1.6v3.4H675v-3.2c0-0.7-0.2-1.1-0.9-1.1c-0.7,0-1.2,0.7-1.2,1.3v3h-0.8v-3.4c0-0.4-0.2-0.9-0.8-0.9
			c-0.5,0-1.3,0.3-1.3,1.6v2.7h-0.8V198.4z"/>
	</g>
</g>
<g transform="translate(-0.5 -0.5)" class="st2">
	<g class="st2">
		<path class="st10" d="M626.7,306.4H626l2.3-7.1h0.6L626.7,306.4z"/>
		<path class="st10" d="M633.1,306.2h-0.9v-6.7h3c1.2,0,2,0.8,2,1.9c0,0.9-0.5,2-2,2h-2.1V306.2z M633.1,302.6h1.8
			c0.8,0,1.4-0.3,1.4-1.2c0-0.9-0.6-1.1-1.3-1.1h-1.8V302.6z"/>
		<path class="st10" d="M639.2,306.2h-0.8v-4.9h0.8v0.8h0c0.3-0.6,0.8-1,1.4-1c0.1,0,0.1,0,0.2,0v0.9h-0.3c-0.8,0-1.3,0.6-1.3,1.3
			V306.2z"/>
		<path class="st10" d="M643.4,301.2c1.6,0,2.3,1.3,2.3,2.6c0,1.3-0.7,2.6-2.3,2.6s-2.3-1.3-2.3-2.6
			C641.1,302.5,641.8,301.2,643.4,301.2z M643.4,305.6c1.2,0,1.4-1.2,1.4-1.9c0-0.7-0.2-1.9-1.4-1.9s-1.4,1.2-1.4,1.9
			C642,304.4,642.2,305.6,643.4,305.6z"/>
		<path class="st10" d="M650.7,305.8c0,0.7,0,2.5-2.3,2.5c-0.6,0-1.7-0.2-1.9-1.5h0.8c0.2,0.8,0.9,0.8,1.1,0.8
			c1.4,0,1.4-1.1,1.4-1.7v-0.2h0v0c-0.2,0.3-0.6,0.7-1.3,0.7c-1.7,0-2.2-1.6-2.2-2.7c0-1.4,0.7-2.4,2-2.4c0.9,0,1.3,0.6,1.5,0.8h0
			v-0.7h0.8V305.8z M648.6,305.6c0.5,0,1.3-0.3,1.3-1.6c0-0.8-0.1-2.1-1.3-2.1c-1.3,0-1.3,1.2-1.3,1.8
			C647.2,304.8,647.7,305.6,648.6,305.6z"/>
		<path class="st10" d="M652.7,306.2h-0.8v-4.9h0.8v0.8h0c0.3-0.6,0.8-1,1.4-1c0.1,0,0.2,0,0.2,0v0.9h-0.3c-0.8,0-1.3,0.6-1.3,1.3
			V306.2z"/>
		<path class="st10" d="M654.7,302.8c0-1.2,0.8-1.6,2-1.6c0.4,0,1.8,0.1,1.8,1.4v2.8c0,0.2,0.1,0.3,0.3,0.3c0.1,0,0.2,0,0.3,0v0.6
			c-0.1,0-0.3,0.1-0.5,0.1c-0.7,0-0.8-0.4-0.9-0.8c-0.3,0.3-0.8,0.8-1.8,0.8c-0.9,0-1.5-0.6-1.5-1.4c0-0.4,0.1-1.4,1.5-1.5l1.4-0.2
			c0.2,0,0.4-0.1,0.4-0.6c0-0.5-0.4-0.8-1.2-0.8c-0.9,0-1.1,0.6-1.1,0.9H654.7z M657.8,303.7c-0.1,0.1-0.3,0.2-1.4,0.3
			c-0.4,0.1-1,0.2-1,0.8c0,0.5,0.3,0.9,0.9,0.9c0.8,0,1.5-0.5,1.5-1.2V303.7z"/>
		<path class="st10" d="M660,301.3h0.8v0.7h0c0.2-0.3,0.6-0.8,1.5-0.8s1.2,0.5,1.3,0.8c0.4-0.5,0.7-0.8,1.5-0.8
			c0.5,0,1.5,0.3,1.5,1.6v3.4h-0.8V303c0-0.7-0.2-1.1-0.9-1.1c-0.7,0-1.2,0.7-1.2,1.3v3h-0.8v-3.4c0-0.4-0.2-0.9-0.8-0.9
			c-0.5,0-1.3,0.3-1.3,1.6v2.7H660V301.3z"/>
		<path class="st10" d="M667.8,301.3h0.8v0.7h0c0.2-0.3,0.6-0.8,1.5-0.8c0.9,0,1.2,0.5,1.3,0.8c0.4-0.5,0.7-0.8,1.5-0.8
			c0.5,0,1.5,0.3,1.5,1.6v3.4h-0.8V303c0-0.7-0.2-1.1-0.9-1.1c-0.7,0-1.2,0.7-1.2,1.3v3h-0.8v-3.4c0-0.4-0.2-0.9-0.8-0.9
			c-0.5,0-1.3,0.3-1.3,1.6v2.7h-0.8V301.3z"/>
	</g>
</g>
<g transform="translate(-0.5 -0.5)" class="st2">
	<g class="st2">
		<path class="st10" d="M670.2,242.8h-0.6l2.3-7.1h0.6L670.2,242.8z"/>
		<path class="st10" d="M676.5,242.6h-0.9v-6.7h0.9v3.3l3.3-3.3h1.3l-2.8,2.7l2.9,4H680l-2.4-3.4l-1.1,1V242.6z"/>
		<path class="st10" d="M681.8,239.2c0-1.2,0.8-1.6,2-1.6c0.4,0,1.8,0.1,1.8,1.4v2.8c0,0.2,0.1,0.3,0.3,0.3c0.1,0,0.2,0,0.3,0v0.6
			c-0.1,0-0.3,0.1-0.4,0.1c-0.7,0-0.8-0.4-0.9-0.8c-0.3,0.3-0.8,0.8-1.8,0.8c-0.9,0-1.5-0.6-1.5-1.4c0-0.4,0.1-1.4,1.5-1.5l1.4-0.2
			c0.2,0,0.4-0.1,0.4-0.6c0-0.5-0.4-0.8-1.2-0.8c-0.9,0-1.1,0.6-1.1,0.9H681.8z M684.8,240.1c-0.1,0.1-0.3,0.2-1.4,0.3
			c-0.4,0.1-1,0.2-1,0.8c0,0.5,0.3,0.9,0.9,0.9c0.8,0,1.5-0.5,1.5-1.2V240.1z"/>
		<path class="st10" d="M687,237.7h0.8v0.7h0c0.2-0.3,0.6-0.8,1.5-0.8c0.9,0,1.2,0.5,1.3,0.8c0.4-0.5,0.7-0.8,1.5-0.8
			c0.5,0,1.5,0.3,1.5,1.6v3.4h-0.8v-3.2c0-0.7-0.2-1.1-0.9-1.1c-0.7,0-1.2,0.7-1.2,1.3v3h-0.8v-3.4c0-0.4-0.2-0.9-0.8-0.9
			c-0.5,0-1.3,0.3-1.3,1.6v2.7H687V237.7z"/>
		<path class="st10" d="M694.7,237.7h0.8v0.7h0c0.2-0.3,0.6-0.8,1.5-0.8c1.3,0,2,1.1,2,2.4c0,1.2-0.5,2.7-2.2,2.7
			c-0.7,0-1.1-0.3-1.3-0.7h0v2.5h-0.8V237.7z M696.9,242c0.9,0,1.3-0.8,1.3-1.9c0-0.6-0.1-1.8-1.3-1.8c-1.2,0-1.3,1.3-1.3,2.1
			C695.5,241.7,696.3,242,696.9,242z"/>
		<path class="st10" d="M700,239.2c0-1.2,0.8-1.6,2-1.6c0.4,0,1.8,0.1,1.8,1.4v2.8c0,0.2,0.1,0.3,0.3,0.3c0.1,0,0.2,0,0.3,0v0.6
			c-0.1,0-0.3,0.1-0.5,0.1c-0.7,0-0.8-0.4-0.9-0.8c-0.3,0.3-0.8,0.8-1.8,0.8c-0.9,0-1.5-0.6-1.5-1.4c0-0.4,0.1-1.4,1.5-1.5l1.4-0.2
			c0.2,0,0.4-0.1,0.4-0.6c0-0.5-0.4-0.8-1.2-0.8c-0.9,0-1.1,0.6-1.1,0.9H700z M703,240.1c-0.1,0.1-0.3,0.2-1.4,0.3
			c-0.4,0.1-1,0.2-1,0.8c0,0.5,0.3,0.9,0.9,0.9c0.8,0,1.5-0.5,1.5-1.2V240.1z"/>
		<path class="st10" d="M709.3,242.2c0,0.7,0,2.5-2.3,2.5c-0.6,0-1.7-0.2-1.9-1.5h0.8c0.1,0.8,0.9,0.8,1.1,0.8
			c1.4,0,1.4-1.1,1.4-1.7v-0.2h0v0c-0.2,0.3-0.6,0.7-1.3,0.7c-1.7,0-2.2-1.6-2.2-2.7c0-1.4,0.7-2.4,2-2.4c0.9,0,1.3,0.6,1.5,0.8h0
			v-0.7h0.8V242.2z M707.2,242c0.5,0,1.3-0.3,1.3-1.6c0-0.8-0.1-2.1-1.3-2.1c-1.3,0-1.3,1.2-1.3,1.8
			C705.9,241.2,706.3,242,707.2,242z"/>
		<path class="st10" d="M714.4,242.6h-0.8v-3c0-0.9-0.2-1.3-1-1.3c-0.5,0-1.3,0.3-1.3,1.6v2.7h-0.8v-4.9h0.8v0.7h0
			c0.2-0.3,0.6-0.8,1.5-0.8c0.8,0,1.7,0.3,1.7,1.7V242.6z"/>
		<path class="st10" d="M719.8,241.1c0,0.2-0.3,0.9-0.9,1.3c-0.2,0.1-0.5,0.3-1.3,0.3c-1.4,0-2.2-1-2.2-2.5c0-1.5,0.7-2.7,2.4-2.7
			c1.4,0,2.1,1.1,2.1,2.9h-3.6c0,1,0.5,1.6,1.4,1.6c0.8,0,1.2-0.6,1.3-1H719.8z M719,239.8c0-0.8-0.4-1.5-1.4-1.5
			c-0.8,0-1.4,0.7-1.4,1.5H719z"/>
	</g>
</g>
<g transform="translate(-0.5 -0.5)" class="st2">
	<g class="st2">
		<path class="st10" d="M670.2,345.2h-0.6l2.3-7.1h0.6L670.2,345.2z"/>
		<path class="st10" d="M676.5,345h-0.9v-6.7h0.9v3.3l3.3-3.3h1.3l-2.8,2.7l2.9,4H680l-2.4-3.4l-1.1,1V345z"/>
		<path class="st10" d="M681.8,341.6c0-1.2,0.8-1.6,2-1.6c0.4,0,1.8,0.1,1.8,1.4v2.8c0,0.2,0.1,0.3,0.3,0.3c0.1,0,0.2,0,0.3,0v0.6
			c-0.1,0-0.3,0.1-0.5,0.1c-0.7,0-0.8-0.4-0.9-0.8c-0.3,0.3-0.8,0.8-1.8,0.8c-0.9,0-1.5-0.6-1.5-1.4c0-0.4,0.1-1.4,1.5-1.5l1.4-0.2
			c0.2,0,0.4-0.1,0.4-0.6c0-0.5-0.4-0.8-1.2-0.8c-0.9,0-1.1,0.6-1.1,0.9H681.8z M684.8,342.5c-0.1,0.1-0.3,0.2-1.4,0.3
			c-0.4,0.1-1,0.2-1,0.8c0,0.5,0.3,0.9,0.9,0.9c0.8,0,1.5-0.5,1.5-1.2V342.5z"/>
		<path class="st10" d="M687,340.1h0.8v0.7h0c0.2-0.3,0.6-0.8,1.5-0.8s1.2,0.5,1.3,0.8c0.4-0.5,0.7-0.8,1.5-0.8
			c0.5,0,1.5,0.3,1.5,1.6v3.4h-0.8v-3.2c0-0.7-0.2-1.1-0.9-1.1c-0.7,0-1.2,0.7-1.2,1.3v3h-0.8v-3.4c0-0.4-0.2-0.9-0.8-0.9
			c-0.5,0-1.3,0.3-1.3,1.6v2.7H687V340.1z"/>
		<path class="st10" d="M694.7,340.1h0.8v0.7h0c0.2-0.3,0.6-0.8,1.5-0.8c1.3,0,2,1.1,2,2.4c0,1.2-0.5,2.7-2.2,2.7
			c-0.7,0-1.1-0.3-1.3-0.7h0v2.5h-0.8V340.1z M696.9,344.5c0.9,0,1.3-0.8,1.3-1.9c0-0.6-0.1-1.8-1.3-1.8c-1.2,0-1.3,1.3-1.3,2.1
			C695.5,344.1,696.3,344.5,696.9,344.5z"/>
		<path class="st10" d="M700,341.6c0-1.2,0.8-1.6,2-1.6c0.4,0,1.8,0.1,1.8,1.4v2.8c0,0.2,0.1,0.3,0.3,0.3c0.1,0,0.2,0,0.3,0v0.6
			c-0.1,0-0.3,0.1-0.4,0.1c-0.7,0-0.8-0.4-0.9-0.8c-0.3,0.3-0.8,0.8-1.8,0.8c-0.9,0-1.5-0.6-1.5-1.4c0-0.4,0.1-1.4,1.5-1.5l1.4-0.2
			c0.2,0,0.4-0.1,0.4-0.6c0-0.5-0.4-0.8-1.2-0.8c-0.9,0-1.1,0.6-1.1,0.9H700z M703,342.5c-0.1,0.1-0.3,0.2-1.4,0.3
			c-0.4,0.1-1,0.2-1,0.8c0,0.5,0.3,0.9,0.9,0.9c0.8,0,1.5-0.5,1.5-1.2V342.5z"/>
		<path class="st10" d="M709.3,344.6c0,0.7,0,2.5-2.3,2.5c-0.6,0-1.7-0.2-1.9-1.5h0.8c0.2,0.8,0.9,0.8,1.1,0.8
			c1.4,0,1.4-1.1,1.4-1.7v-0.2h0v0c-0.2,0.3-0.6,0.7-1.3,0.7c-1.7,0-2.2-1.6-2.2-2.7c0-1.4,0.7-2.4,2-2.4c0.9,0,1.3,0.6,1.5,0.8h0
			v-0.7h0.8V344.6z M707.2,344.5c0.5,0,1.3-0.3,1.3-1.6c0-0.8-0.1-2.1-1.3-2.1c-1.3,0-1.3,1.2-1.3,1.8
			C705.9,343.7,706.3,344.5,707.2,344.5z"/>
		<path class="st10" d="M714.4,345h-0.8v-3c0-0.9-0.2-1.3-1-1.3c-0.5,0-1.3,0.3-1.3,1.6v2.7h-0.8v-4.9h0.8v0.7h0
			c0.2-0.3,0.6-0.8,1.5-0.8c0.8,0,1.7,0.3,1.7,1.7V345z"/>
		<path class="st10" d="M719.8,343.5c0,0.2-0.3,0.9-0.9,1.3c-0.2,0.1-0.5,0.3-1.3,0.3c-1.4,0-2.2-1-2.2-2.5c0-1.5,0.7-2.7,2.4-2.7
			c1.4,0,2.1,1.1,2.1,2.9h-3.6c0,1,0.5,1.6,1.4,1.6c0.8,0,1.2-0.6,1.3-1H719.8z M719,342.2c0-0.8-0.4-1.5-1.4-1.5
			c-0.8,0-1.4,0.7-1.4,1.5H719z"/>
	</g>
</g>
<g transform="translate(-0.5 -0.5)" class="st2">
	<g class="st2">
		<path class="st10" d="M711.1,384.7h-0.6l2.3-7.1h0.6L711.1,384.7z"/>
		<path class="st10" d="M717.6,382.6l-0.7,2H716l2.5-6.7h1l2.4,6.7h-1l-0.7-2H717.6z M720,381.8l-1-3h0l-1.1,3H720z"/>
		<path class="st10" d="M726.7,384.6h-0.8v-3c0-0.9-0.2-1.3-1-1.3c-0.5,0-1.3,0.3-1.3,1.6v2.7h-0.8v-4.9h0.8v0.7h0
			c0.2-0.3,0.6-0.8,1.5-0.8c0.8,0,1.7,0.3,1.7,1.7V384.6z"/>
		<path class="st10" d="M732,384.2c0,0.7,0,2.5-2.3,2.5c-0.6,0-1.7-0.2-1.9-1.5h0.8c0.2,0.8,0.9,0.8,1.1,0.8c1.4,0,1.4-1.1,1.4-1.7
			V384h0v0c-0.2,0.3-0.6,0.7-1.3,0.7c-1.7,0-2.2-1.6-2.2-2.7c0-1.4,0.7-2.4,2-2.4c0.9,0,1.3,0.6,1.5,0.8h0v-0.7h0.8V384.2z
			 M729.9,384c0.5,0,1.3-0.3,1.3-1.6c0-0.8-0.1-2.1-1.3-2.1c-1.3,0-1.3,1.2-1.3,1.8C728.6,383.2,729,384,729.9,384z"/>
		<path class="st10" d="M737.3,383c0,0.2-0.3,0.9-0.9,1.3c-0.2,0.1-0.5,0.3-1.3,0.3c-1.4,0-2.2-1-2.2-2.5c0-1.5,0.7-2.7,2.4-2.7
			c1.4,0,2.1,1.1,2.1,2.9h-3.6c0,1,0.5,1.6,1.4,1.6c0.8,0,1.2-0.6,1.3-1H737.3z M736.5,381.7c0-0.8-0.4-1.5-1.4-1.5
			c-0.8,0-1.4,0.7-1.4,1.5H736.5z"/>
		<path class="st10" d="M738.3,384.6v-6.7h0.8v2.4h0c0.4-0.5,0.8-0.8,1.4-0.8c1.3,0,2,1.1,2,2.4c0,1.2-0.5,2.7-2.2,2.7
			c-0.8,0-1.2-0.5-1.3-0.8h0v0.6H738.3z M740.4,380.3c-1.2,0-1.3,1.3-1.3,2.1c0,1.3,0.8,1.6,1.3,1.6c0.9,0,1.3-0.8,1.3-1.9
			C741.7,381.5,741.7,380.3,740.4,380.3z"/>
		<path class="st10" d="M745.6,379.5c1.6,0,2.3,1.3,2.3,2.6c0,1.3-0.7,2.6-2.3,2.6s-2.3-1.3-2.3-2.6
			C743.3,380.8,744,379.5,745.6,379.5z M745.6,384c1.2,0,1.4-1.2,1.4-1.9c0-0.7-0.2-1.9-1.4-1.9s-1.4,1.2-1.4,1.9
			C744.1,382.8,744.4,384,745.6,384z"/>
		<path class="st10" d="M749.8,380.4v3.2c0,0.4,0.3,0.4,0.5,0.4h0.3v0.6c-0.3,0-0.5,0.1-0.6,0.1c-0.8,0-1-0.5-1-1v-3.2h-0.7v-0.7
			h0.7v-1.4h0.8v1.4h0.8v0.7H749.8z"/>
		<path class="st10" d="M755.5,383c0,0.2-0.3,0.9-0.9,1.3c-0.2,0.1-0.5,0.3-1.3,0.3c-1.4,0-2.2-1-2.2-2.5c0-1.5,0.7-2.7,2.4-2.7
			c1.4,0,2.1,1.1,2.1,2.9H752c0,1,0.5,1.6,1.4,1.6c0.8,0,1.2-0.6,1.3-1H755.5z M754.8,381.7c0-0.8-0.4-1.5-1.4-1.5
			c-0.8,0-1.4,0.7-1.4,1.5H754.8z"/>
		<path class="st10" d="M759.9,385.7h1v0.7h-1.8v-8.6h1.8v0.7h-1V385.7z"/>
		<path class="st10" d="M766.6,379.9c-0.3-1.2-1.2-1.4-1.9-1.4c-1.2,0-2.2,0.9-2.2,2.7c0,1.6,0.6,2.8,2.2,2.8c0.6,0,1.6-0.3,1.9-1.8
			h0.9c-0.4,2.5-2.4,2.7-2.9,2.7c-1.5,0-3-1-3-3.6c0-2.1,1.2-3.5,3.1-3.5c1.7,0,2.6,1.1,2.8,2.2H766.6z"/>
		<path class="st10" d="M769.7,384.6h-0.9v-6.7h4.7v0.8h-3.7v2.1h3.3v0.8h-3.3V384.6z"/>
		<path class="st10" d="M775,378.5h-1v-0.7h1.8v8.6H774v-0.7h1V378.5z"/>
	</g>
</g>
<g transform="translate(-0.5 -0.5)" class="st2">
	<g class="st2">
		<path class="st10" d="M714.1,448.2h-0.6l2.3-7.1h0.6L714.1,448.2z"/>
		<path class="st10" d="M720.6,446.1l-0.7,2H719l2.5-6.7h1l2.4,6.7h-1l-0.7-2H720.6z M723,445.3l-1-3h0l-1.1,3H723z"/>
		<path class="st10" d="M728.5,444.5c0-0.3-0.1-0.8-1.2-0.8c-0.3,0-1,0.1-1,0.7c0,0.4,0.3,0.5,0.9,0.7l0.8,0.2
			c1,0.3,1.4,0.6,1.4,1.3c0,1-0.8,1.6-1.9,1.6c-1.9,0-2.1-1.1-2.1-1.7h0.8c0,0.4,0.1,1,1.3,1c0.6,0,1.1-0.2,1.1-0.8
			c0-0.4-0.3-0.5-1-0.7l-1-0.2c-0.7-0.2-1.1-0.5-1.1-1.2c0-1.1,0.9-1.6,1.9-1.6c1.8,0,1.9,1.3,1.9,1.5H728.5z"/>
		<path class="st10" d="M733.2,444.5c0-0.3-0.1-0.8-1.2-0.8c-0.3,0-1,0.1-1,0.7c0,0.4,0.3,0.5,0.9,0.7l0.8,0.2
			c1,0.3,1.4,0.6,1.4,1.3c0,1-0.8,1.6-1.9,1.6c-1.9,0-2.1-1.1-2.1-1.7h0.8c0,0.4,0.1,1,1.3,1c0.6,0,1.1-0.2,1.1-0.8
			c0-0.4-0.3-0.5-1-0.7l-1-0.2c-0.7-0.2-1.1-0.5-1.1-1.2c0-1.1,0.9-1.6,1.9-1.6c1.8,0,1.9,1.3,1.9,1.5H733.2z"/>
		<path class="st10" d="M739.3,446.5c0,0.2-0.3,0.9-0.9,1.3c-0.2,0.1-0.5,0.3-1.3,0.3c-1.4,0-2.2-1-2.2-2.5c0-1.5,0.7-2.7,2.4-2.7
			c1.4,0,2.1,1.1,2.1,2.9h-3.6c0,1,0.5,1.6,1.4,1.6c0.8,0,1.2-0.6,1.3-1H739.3z M738.5,445.2c0-0.8-0.4-1.5-1.4-1.5
			c-0.8,0-1.4,0.7-1.4,1.5H738.5z"/>
		<path class="st10" d="M741.3,443.8v3.2c0,0.4,0.3,0.4,0.5,0.4h0.3v0.6c-0.3,0-0.5,0.1-0.6,0.1c-0.8,0-1-0.5-1-1v-3.2h-0.7v-0.7
			h0.7v-1.4h0.8v1.4h0.8v0.7H741.3z"/>
		<path class="st10" d="M745.7,444.5c0-0.3-0.1-0.8-1.2-0.8c-0.3,0-1,0.1-1,0.7c0,0.4,0.3,0.5,0.9,0.7l0.8,0.2
			c1,0.3,1.4,0.6,1.4,1.3c0,1-0.8,1.6-1.9,1.6c-1.9,0-2.1-1.1-2.1-1.7h0.8c0,0.4,0.1,1,1.3,1c0.6,0,1.1-0.2,1.1-0.8
			c0-0.4-0.3-0.5-1-0.7l-1-0.2c-0.7-0.2-1.1-0.5-1.1-1.2c0-1.1,0.9-1.6,1.9-1.6c1.8,0,1.9,1.3,1.9,1.5H745.7z"/>
	</g>
</g>
<g transform="translate(-0.5 -0.5)" class="st2">
	<g class="st2">
		<path class="st10" d="M756.5,424h-0.6l2.3-7.1h0.6L756.5,424z"/>
		<path class="st10" d="M763,421.8l-0.7,2h-0.9l2.5-6.7h1l2.4,6.7h-1l-0.7-2H763z M765.4,421l-1-3h0l-1.1,3H765.4z"/>
		<path class="st10" d="M772.1,423.8h-0.8v-3c0-0.9-0.2-1.3-1-1.3c-0.5,0-1.3,0.3-1.3,1.6v2.7h-0.8v-4.9h0.8v0.7h0
			c0.2-0.3,0.6-0.8,1.5-0.8c0.8,0,1.7,0.3,1.7,1.7V423.8z"/>
		<path class="st10" d="M777.4,423.4c0,0.7,0,2.5-2.3,2.5c-0.6,0-1.7-0.2-1.9-1.5h0.8c0.2,0.8,0.9,0.8,1.1,0.8
			c1.4,0,1.4-1.1,1.4-1.7v-0.2h0v0c-0.2,0.3-0.6,0.7-1.3,0.7c-1.7,0-2.2-1.6-2.2-2.7c0-1.4,0.7-2.4,2-2.4c0.9,0,1.3,0.6,1.5,0.8h0
			v-0.7h0.8V423.4z M775.3,423.2c0.5,0,1.3-0.3,1.3-1.6c0-0.8-0.1-2.1-1.3-2.1c-1.3,0-1.3,1.2-1.3,1.8
			C773.9,422.4,774.4,423.2,775.3,423.2z"/>
		<path class="st10" d="M782.7,422.2c0,0.2-0.3,0.9-0.9,1.3c-0.2,0.1-0.5,0.3-1.3,0.3c-1.4,0-2.2-1-2.2-2.5c0-1.5,0.7-2.7,2.4-2.7
			c1.4,0,2.1,1.1,2.1,2.9h-3.6c0,1,0.5,1.6,1.4,1.6c0.8,0,1.2-0.6,1.3-1H782.7z M781.9,420.9c0-0.8-0.4-1.5-1.4-1.5
			c-0.8,0-1.4,0.7-1.4,1.5H781.9z"/>
		<path class="st10" d="M783.7,423.8V417h0.8v2.4h0c0.4-0.5,0.8-0.8,1.4-0.8c1.3,0,2,1.1,2,2.4c0,1.2-0.5,2.7-2.2,2.7
			c-0.8,0-1.2-0.5-1.3-0.8h0v0.6H783.7z M785.8,419.5c-1.2,0-1.3,1.3-1.3,2.1c0,1.3,0.8,1.6,1.3,1.6c0.9,0,1.3-0.8,1.3-1.9
			C787.1,420.7,787.1,419.5,785.8,419.5z"/>
		<path class="st10" d="M791,418.7c1.6,0,2.3,1.3,2.3,2.6c0,1.3-0.7,2.6-2.3,2.6s-2.3-1.3-2.3-2.6
			C788.7,420.1,789.4,418.7,791,418.7z M791,423.2c1.2,0,1.4-1.2,1.4-1.9c0-0.7-0.2-1.9-1.4-1.9s-1.4,1.2-1.4,1.9
			C789.5,422,789.8,423.2,791,423.2z"/>
		<path class="st10" d="M795.2,419.6v3.2c0,0.4,0.3,0.4,0.5,0.4h0.3v0.6c-0.3,0-0.5,0.1-0.6,0.1c-0.8,0-1-0.5-1-1v-3.2h-0.7v-0.7
			h0.7v-1.4h0.8v1.4h0.8v0.7H795.2z"/>
		<path class="st10" d="M799.6,420.3c0-0.3-0.1-0.8-1.2-0.8c-0.3,0-1,0.1-1,0.7c0,0.4,0.3,0.5,0.9,0.7l0.8,0.2
			c1,0.3,1.4,0.6,1.4,1.3c0,1-0.8,1.6-1.9,1.6c-1.9,0-2.1-1.1-2.1-1.7h0.8c0,0.4,0.1,1,1.3,1c0.6,0,1.1-0.2,1.1-0.8
			c0-0.4-0.3-0.5-1-0.7l-1-0.2c-0.7-0.2-1.1-0.5-1.1-1.2c0-1.1,0.9-1.6,1.9-1.6c1.8,0,1.9,1.3,1.9,1.5H799.6z"/>
		<path class="st10" d="M804.6,418.9h0.9l-1.9,4.9h-0.9l-1.8-4.9h1l1.3,4h0L804.6,418.9z"/>
		<path class="st10" d="M805.9,420.4c0-1.2,0.8-1.6,2-1.6c0.4,0,1.8,0.1,1.8,1.4v2.8c0,0.2,0.1,0.3,0.3,0.3c0.1,0,0.2,0,0.3,0v0.6
			c-0.1,0-0.3,0.1-0.5,0.1c-0.7,0-0.8-0.4-0.9-0.8c-0.3,0.3-0.8,0.8-1.8,0.8c-0.9,0-1.5-0.6-1.5-1.4c0-0.4,0.1-1.4,1.5-1.5l1.4-0.2
			c0.2,0,0.4-0.1,0.4-0.6c0-0.5-0.4-0.8-1.2-0.8c-0.9,0-1.1,0.6-1.1,0.9H805.9z M808.9,421.3c-0.1,0.1-0.3,0.2-1.4,0.3
			c-0.4,0.1-1,0.2-1,0.8c0,0.5,0.3,0.9,0.9,0.9c0.8,0,1.5-0.5,1.5-1.2V421.3z"/>
		<path class="st10" d="M812.1,423.8h-0.8v-4.9h0.8v0.8h0c0.3-0.6,0.8-1,1.4-1c0.1,0,0.1,0,0.2,0v0.9h-0.3c-0.8,0-1.3,0.6-1.3,1.3
			V423.8z"/>
		<path class="st10" d="M814.4,418V417h0.8v0.9H814.4z M815.2,423.8h-0.8v-4.9h0.8V423.8z"/>
		<path class="st10" d="M816.4,420.4c0-1.2,0.8-1.6,2-1.6c0.4,0,1.8,0.1,1.8,1.4v2.8c0,0.2,0.1,0.3,0.3,0.3c0.1,0,0.2,0,0.3,0v0.6
			c-0.1,0-0.3,0.1-0.5,0.1c-0.7,0-0.8-0.4-0.9-0.8c-0.3,0.3-0.8,0.8-1.8,0.8c-0.9,0-1.5-0.6-1.5-1.4c0-0.4,0.1-1.4,1.5-1.5l1.4-0.2
			c0.2,0,0.4-0.1,0.4-0.6c0-0.5-0.4-0.8-1.2-0.8c-0.9,0-1.1,0.6-1.1,0.9H816.4z M819.5,421.3c-0.1,0.1-0.3,0.2-1.4,0.3
			c-0.4,0.1-1,0.2-1,0.8c0,0.5,0.3,0.9,0.9,0.9c0.8,0,1.5-0.5,1.5-1.2V421.3z"/>
		<path class="st10" d="M825.7,423.8h-0.8v-3c0-0.9-0.2-1.3-1-1.3c-0.5,0-1.3,0.3-1.3,1.6v2.7h-0.8v-4.9h0.8v0.7h0
			c0.2-0.3,0.6-0.8,1.5-0.8c0.8,0,1.7,0.3,1.7,1.7V423.8z"/>
		<path class="st10" d="M827.9,419.6v3.2c0,0.4,0.3,0.4,0.5,0.4h0.3v0.6c-0.3,0-0.5,0.1-0.6,0.1c-0.8,0-1-0.5-1-1v-3.2h-0.7v-0.7
			h0.7v-1.4h0.8v1.4h0.8v0.7H827.9z"/>
		<path class="st10" d="M833.7,422.2c0,0.2-0.3,0.9-0.9,1.3c-0.2,0.1-0.5,0.3-1.3,0.3c-1.4,0-2.2-1-2.2-2.5c0-1.5,0.7-2.7,2.4-2.7
			c1.4,0,2.1,1.1,2.1,2.9h-3.6c0,1,0.5,1.6,1.4,1.6c0.8,0,1.2-0.6,1.3-1H833.7z M832.9,420.9c0-0.8-0.4-1.5-1.4-1.5
			c-0.8,0-1.4,0.7-1.4,1.5H832.9z"/>
		<path class="st10" d="M838.7,423.8h-0.8v-3c0-0.9-0.2-1.3-1-1.3c-0.5,0-1.3,0.3-1.3,1.6v2.7h-0.8v-4.9h0.8v0.7h0
			c0.2-0.3,0.6-0.8,1.5-0.8c0.8,0,1.7,0.3,1.7,1.7V423.8z"/>
	</g>
</g>
<g transform="translate(-0.5 -0.5)" class="st2">
	<g class="st2">
		<path class="st10" d="M714.8,283h-0.6l2.3-7.1h0.6L714.8,283z"/>
		<path class="st10" d="M721.3,280.8l-0.7,2h-0.9l2.5-6.7h1l2.4,6.7h-1l-0.7-2H721.3z M723.7,280l-1-3h0l-1.1,3H723.7z"/>
		<path class="st10" d="M729.2,279.3c0-0.3-0.1-0.8-1.2-0.8c-0.3,0-1,0.1-1,0.7c0,0.4,0.3,0.5,0.9,0.7l0.8,0.2
			c1,0.3,1.4,0.6,1.4,1.3c0,1-0.8,1.6-1.9,1.6c-1.9,0-2.1-1.1-2.1-1.7h0.8c0,0.4,0.1,1,1.3,1c0.6,0,1.1-0.2,1.1-0.8
			c0-0.4-0.3-0.5-1-0.7l-1-0.2c-0.7-0.2-1.1-0.5-1.1-1.2c0-1.1,0.9-1.6,1.9-1.6c1.8,0,1.9,1.3,1.9,1.5H729.2z"/>
		<path class="st10" d="M733.9,279.3c0-0.3-0.1-0.8-1.2-0.8c-0.3,0-1,0.1-1,0.7c0,0.4,0.3,0.5,0.9,0.7l0.8,0.2
			c1,0.3,1.4,0.6,1.4,1.3c0,1-0.8,1.6-1.9,1.6c-1.9,0-2.1-1.1-2.1-1.7h0.8c0,0.4,0.1,1,1.3,1c0.6,0,1.1-0.2,1.1-0.8
			c0-0.4-0.3-0.5-1-0.7l-1-0.2c-0.7-0.2-1.1-0.5-1.1-1.2c0-1.1,0.9-1.6,1.9-1.6c1.8,0,1.9,1.3,1.9,1.5H733.9z"/>
		<path class="st10" d="M740,281.2c0,0.2-0.3,0.9-0.9,1.3c-0.2,0.1-0.5,0.3-1.3,0.3c-1.4,0-2.2-1-2.2-2.5c0-1.5,0.7-2.7,2.4-2.7
			c1.4,0,2.1,1.1,2.1,2.9h-3.6c0,1,0.5,1.6,1.4,1.6c0.8,0,1.2-0.6,1.3-1H740z M739.2,279.9c0-0.8-0.4-1.5-1.4-1.5
			c-0.8,0-1.4,0.7-1.4,1.5H739.2z"/>
		<path class="st10" d="M742,278.6v3.2c0,0.4,0.3,0.4,0.5,0.4h0.3v0.6c-0.3,0-0.5,0.1-0.6,0.1c-0.8,0-1-0.5-1-1v-3.2h-0.7v-0.7h0.7
			v-1.4h0.8v1.4h0.8v0.7H742z"/>
		<path class="st10" d="M745.7,280.6h-2.3v-0.8h2.3V280.6z"/>
		<path class="st10" d="M752.4,282.8v-4c0-0.2,0-1,0-1.7h0l-1.9,5.6h-0.9l-1.9-5.6h0c0,0.6,0,1.5,0,1.7v4h-0.9V276h1.3l1.9,5.7h0
			l1.9-5.7h1.3v6.7H752.4z"/>
		<path class="st10" d="M754.6,277V276h0.8v0.9H754.6z M755.4,282.8h-0.8v-4.9h0.8V282.8z"/>
		<path class="st10" d="M760.6,282.8h-1l-1.2-1.8l-1.2,1.8h-1l1.7-2.5l-1.6-2.4h1.1l1.1,1.7l1.1-1.7h1l-1.7,2.4L760.6,282.8z"/>
	</g>
</g>
<path class="st7" d="M961.3,108v294.2c0,0-2.3,14.1,9.1,14.1h15.7"/>
<path class="st7" d="M961.3,148.8c0,0-3,15.8,9,15.8h15.8"/>
<polyline class="st7" points="1025.3,182.6 1025.3,373.8 1037.6,373.8 "/>
<line class="st7" x1="1025.3" y1="214.5" x2="1038.3" y2="214.5"/>
<polyline class="st7" points="1067.4,223.6 1067.4,258.9 1081.5,258.9 "/>
<polyline class="st7" points="1111.1,267.8 1111.1,303.3 1125.2,303.3 "/>
<polyline class="st7" points="1144.9,312.9 1144.9,346.9 1159.9,346.9 "/>
<g>
	<g>
		<path class="st0" d="M1025.3,194.1c-2.6,0-4.7-2.1-4.7-4.7c0-2.6,2.1-4.7,4.7-4.7s4.7,2.1,4.7,4.7
			C1030,192,1027.9,194.1,1025.3,194.1z"/>
		<path class="st4" d="M1025.3,185.1c2.3,0,4.2,1.9,4.2,4.2c0,2.3-1.9,4.2-4.2,4.2c-2.3,0-4.2-1.9-4.2-4.2
			C1021,187,1022.9,185.1,1025.3,185.1 M1025.3,184.1c-2.9,0-5.2,2.3-5.2,5.2s2.3,5.2,5.2,5.2c2.9,0,5.2-2.3,5.2-5.2
			S1028.2,184.1,1025.3,184.1L1025.3,184.1z"/>
	</g>
	<g transform="translate(-0.5 -0.5)">
		<g class="st2">
			<path d="M1027.2,190.4h-2.9v-1.1h2.9V190.4z"/>
		</g>
	</g>
</g>
<g>
	<g>
		<path class="st0" d="M1067.4,237.9c-2.6,0-4.7-2.1-4.7-4.7c0-2.6,2.1-4.7,4.7-4.7s4.7,2.1,4.7,4.7
			C1072.1,235.8,1070,237.9,1067.4,237.9z"/>
		<path class="st4" d="M1067.4,228.9c2.3,0,4.2,1.9,4.2,4.2c0,2.3-1.9,4.2-4.2,4.2c-2.3,0-4.2-1.9-4.2-4.2
			C1063.1,230.8,1065,228.9,1067.4,228.9 M1067.4,227.9c-2.9,0-5.2,2.3-5.2,5.2s2.3,5.2,5.2,5.2c2.9,0,5.2-2.3,5.2-5.2
			S1070.2,227.9,1067.4,227.9L1067.4,227.9z"/>
	</g>
	<g transform="translate(-0.5 -0.5)">
		<g class="st2">
			<path d="M1069.3,234.2h-2.9v-1.1h2.9V234.2z"/>
		</g>
	</g>
</g>
<g>
	<g>
		<path class="st0" d="M1110.6,281.9c-2.6,0-4.7-2.1-4.7-4.7c0-2.6,2.1-4.7,4.7-4.7s4.7,2.1,4.7,4.7
			C1115.4,279.8,1113.3,281.9,1110.6,281.9z"/>
		<path class="st4" d="M1110.6,273c2.3,0,4.2,1.9,4.2,4.2c0,2.3-1.9,4.2-4.2,4.2c-2.3,0-4.2-1.9-4.2-4.2
			C1106.4,274.9,1108.3,273,1110.6,273 M1110.6,272c-2.9,0-5.2,2.3-5.2,5.2s2.3,5.2,5.2,5.2c2.9,0,5.2-2.3,5.2-5.2
			S1113.5,272,1110.6,272L1110.6,272z"/>
	</g>
	<g transform="translate(-0.5 -0.5)">
		<g class="st2">
			<path d="M1112.6,278.2h-2.9v-1.1h2.9V278.2z"/>
		</g>
	</g>
</g>
<g>
	<g>
		<path class="st0" d="M1144.9,326.1c-2.6,0-4.7-2.1-4.7-4.7c0-2.6,2.1-4.7,4.7-4.7s4.7,2.1,4.7,4.7
			C1149.7,324,1147.5,326.1,1144.9,326.1z"/>
		<path class="st4" d="M1144.9,317.1c2.3,0,4.2,1.9,4.2,4.2c0,2.3-1.9,4.2-4.2,4.2c-2.3,0-4.2-1.9-4.2-4.2
			C1140.7,319,1142.6,317.1,1144.9,317.1 M1144.9,316.1c-2.9,0-5.2,2.3-5.2,5.2s2.3,5.2,5.2,5.2s5.2-2.3,5.2-5.2
			S1147.8,316.1,1144.9,316.1L1144.9,316.1z"/>
	</g>
	<g transform="translate(-0.5 -0.5)">
		<g class="st2">
			<path d="M1146.9,322.4h-2.9v-1.1h2.9V322.4z"/>
		</g>
	</g>
</g>
<g class="st2">
	<rect x="873.7" y="53.7" class="st3" width="175.1" height="60"/>
	<path class="st4" d="M1046.3,56.2v55H876.2v-55H1046.3 M1051.3,51.2h-5H876.2h-5v5v55v5h5h170.1h5v-5v-55V51.2L1051.3,51.2z"/>
</g>
<g class="st2">
	<rect x="1034.9" y="203.6" class="st8" width="64.9" height="21.7"/>
	<path class="st3" d="M1098.5,204.9v19.2h-62.4v-19.2H1098.5 M1101,202.4h-2.5h-62.4h-2.5v2.5v19.2v2.5h2.5h62.4h2.5v-2.5v-19.2
		V202.4L1101,202.4z"/>
</g>
<g class="st2">
	<rect x="1078.2" y="248" class="st8" width="64.9" height="21.7"/>
	<path class="st3" d="M1141.8,249.3v19.2h-62.4v-19.2H1141.8 M1144.3,246.8h-2.5h-62.4h-2.5v2.5v19.2v2.5h2.5h62.4h2.5v-2.5v-19.2
		V246.8L1144.3,246.8z"/>
</g>
<g class="st2">
	<rect x="1121.3" y="292.4" class="st8" width="47.3" height="21.7"/>
	<path class="st3" d="M1167.3,293.7v19.2h-44.8v-19.2H1167.3 M1169.8,291.2h-2.5h-44.8h-2.5v2.5v19.2v2.5h2.5h44.8h2.5v-2.5v-19.2
		V291.2L1169.8,291.2z"/>
</g>
<g class="st2">
	<rect x="1155.3" y="336" class="st8" width="60.9" height="21.7"/>
	<path class="st3" d="M1214.9,337.3v19.2h-58.4v-19.2H1214.9 M1217.4,334.8h-2.5h-58.4h-2.5v2.5v19.2v2.5h2.5h58.4h2.5v-2.5v-19.2
		V334.8L1217.4,334.8z"/>
</g>
<g class="st2">
	<rect x="1035.5" y="363" class="st8" width="64.8" height="21.7"/>
	<path class="st3" d="M1099,364.2v19.2h-62.3v-19.2H1099 M1101.5,361.7h-2.5h-62.3h-2.5v2.5v19.2v2.5h2.5h62.3h2.5v-2.5v-19.2V361.7
		L1101.5,361.7z"/>
</g>
<g>
	<rect x="982.1" y="398.2" class="st0" width="115" height="36"/>
	<path class="st4" d="M1096.1,399.2v34h-113v-34H1096.1 M1098.1,397.2h-2h-113h-2v2v34v2h2h113h2v-2v-34V397.2L1098.1,397.2z"/>
</g>
<g transform="translate(-0.5 -0.5)" class="st2">
	<g class="st2">
		<path class="st9" d="M999.2,421.4h-0.9l3.2-9.8h0.9L999.2,421.4z"/>
		<path class="st9" d="M1008.1,421.2h-1.3v-9.3h6.5v1.1h-5.2v2.9h4.6v1.1h-4.6V421.2z"/>
		<path class="st9" d="M1019,421.2v-1l0,0c-0.5,0.8-1.1,1.2-2.2,1.2c-1,0-2.2-0.5-2.2-2.1v-4.9h1.1v4.5c0,1.1,0.6,1.5,1.3,1.5
			c1.4,0,1.9-1.3,1.9-2.3v-3.7h1.1v6.8H1019z"/>
		<path class="st9" d="M1027.3,421.2h-1.1V417c0-1.2-0.3-1.8-1.5-1.8c-0.7,0-1.8,0.4-1.8,2.3v3.7h-1.1v-6.8h1.1v1h0
			c0.2-0.4,0.9-1.2,2.1-1.2c1.1,0,2.4,0.4,2.4,2.4V421.2z"/>
		<path class="st9" d="M1034.7,421.2h-1.5l-2.1-3.4l-0.9,0.9v2.6h-1.1v-9.3h1.1v5.4l2.9-2.9h1.5l-2.6,2.5L1034.7,421.2z"/>
		<path class="st9" d="M1036.9,415.3v4.4c0,0.5,0.5,0.5,0.7,0.5h0.4v0.9c-0.4,0-0.7,0.1-0.9,0.1c-1.1,0-1.4-0.6-1.4-1.5v-4.5h-0.9
			v-0.9h0.9v-1.9h1.1v1.9h1.1v0.9H1036.9z"/>
		<path class="st9" d="M1039.1,413.1v-1.3h1.1v1.3H1039.1z M1040.3,421.2h-1.1v-6.8h1.1V421.2z"/>
		<path class="st9" d="M1044.8,414.2c2.2,0,3.2,1.8,3.2,3.6s-1,3.6-3.2,3.6c-2.2,0-3.2-1.8-3.2-3.6S1042.6,414.2,1044.8,414.2z
			 M1044.8,420.3c1.6,0,2-1.7,2-2.6s-0.3-2.6-2-2.6s-2,1.7-2,2.6S1043.1,420.3,1044.8,420.3z"/>
		<path class="st9" d="M1054.8,421.2h-1.1V417c0-1.2-0.3-1.8-1.5-1.8c-0.6,0-1.8,0.4-1.8,2.3v3.7h-1.1v-6.8h1.1v1h0
			c0.2-0.4,0.9-1.2,2.1-1.2c1.1,0,2.4,0.4,2.4,2.4V421.2z"/>
		<path class="st9" d="M1066.4,411.8h1.2v9.3h-1.4l-4.7-7.5h0v7.5h-1.2v-9.3h1.5l4.7,7.5h0V411.8z"/>
		<path class="st9" d="M1071.9,414.6h0.9v2.8h2.8v0.9h-2.8v2.8h-0.9v-2.8h-2.8v-0.9h2.8V414.6z"/>
		<path class="st9" d="M1080.9,421.2h-1.2v-6.5h-2.1v-0.9c1.5-0.1,2.1-0.2,2.5-1.7h0.9V421.2z"/>
	</g>
</g>
<g>
	<rect x="981.5" y="146.9" class="st0" width="87.6" height="35.4"/>
	<path class="st4" d="M1068.1,147.9v33.4h-85.6v-33.4H1068.1 M1070.1,145.9h-2h-85.6h-2v2v33.4v2h2h85.6h2v-2v-33.4V145.9
		L1070.1,145.9z"/>
</g>
<g transform="translate(-0.5 -0.5)" class="st2">
	<g class="st2">
		<path class="st9" d="M997.9,170.1H997l3.2-9.8h0.9L997.9,170.1z"/>
		<path class="st9" d="M1006.8,169.8h-1.3v-9.3h6.5v1.1h-5.2v2.9h4.6v1.1h-4.6V169.8z"/>
		<path class="st9" d="M1017.7,169.8v-1l0,0c-0.5,0.8-1.1,1.2-2.2,1.2c-1,0-2.2-0.5-2.2-2.1V163h1.1v4.5c0,1.1,0.6,1.5,1.3,1.5
			c1.4,0,1.9-1.3,1.9-2.3V163h1.1v6.8H1017.7z"/>
		<path class="st9" d="M1026,169.8h-1.1v-4.2c0-1.2-0.3-1.8-1.5-1.8c-0.6,0-1.8,0.4-1.8,2.3v3.7h-1.1V163h1.1v1h0
			c0.2-0.4,0.9-1.2,2.1-1.2c1.1,0,2.4,0.4,2.4,2.4V169.8z"/>
		<path class="st9" d="M1033.4,169.8h-1.5l-2.1-3.4l-0.9,0.9v2.6h-1.1v-9.3h1.1v5.4l2.9-2.9h1.5l-2.6,2.5L1033.4,169.8z"/>
		<path class="st9" d="M1035.6,164v4.4c0,0.5,0.5,0.5,0.7,0.5h0.4v0.9c-0.4,0-0.7,0.1-0.9,0.1c-1.1,0-1.4-0.6-1.4-1.5V164h-0.9V163
			h0.9v-1.9h1.1v1.9h1.1v0.9H1035.6z"/>
		<path class="st9" d="M1037.8,161.8v-1.3h1.1v1.3H1037.8z M1039,169.8h-1.1V163h1.1V169.8z"/>
		<path class="st9" d="M1043.5,162.8c2.2,0,3.2,1.8,3.2,3.6c0,1.8-1,3.6-3.2,3.6c-2.2,0-3.2-1.8-3.2-3.6
			C1040.3,164.7,1041.3,162.8,1043.5,162.8z M1043.5,169c1.6,0,2-1.7,2-2.6s-0.3-2.6-2-2.6c-1.6,0-2,1.7-2,2.6
			S1041.8,169,1043.5,169z"/>
		<path class="st9" d="M1053.5,169.8h-1.1v-4.2c0-1.2-0.3-1.8-1.5-1.8c-0.6,0-1.8,0.4-1.8,2.3v3.7h-1.1V163h1.1v1h0
			c0.2-0.4,0.9-1.2,2.1-1.2c1.1,0,2.4,0.4,2.4,2.4V169.8z"/>
	</g>
</g>
<g transform="translate(-0.5 -0.5)">
	<g class="st2">
		<path d="M909.4,90.1h-2.7l4.4-12.2h2.9l4.3,12.2h-2.8l-0.8-2.5h-4.5L909.4,90.1z M911,85.5h3.1l-1.5-4.8h0L911,85.5z"/>
		<path d="M929,80.1h-6.5v2.6h6v2.2h-6V88h6.8v2.2H920V77.9h9V80.1z"/>
		<path d="M943.1,90.1h-2.4V79.9h0l-2.3,10.2h-2.5l-2.2-10.2h0v10.2h-2.4V77.9h3.7l2.2,9.6h0l2.2-9.6h3.7V90.1z"/>
		<path d="M952,90.1h-2.7l4.4-12.2h2.9l4.3,12.2h-2.8l-0.8-2.5h-4.5L952,90.1z M953.5,85.5h3.1l-1.5-4.8h0L953.5,85.5z"/>
		<path d="M964.4,86.4c0,0.7,0.4,2,2.6,2c1.2,0,2.6-0.3,2.6-1.6c0-1-0.9-1.2-2.2-1.5l-1.3-0.3c-2-0.5-3.9-0.9-3.9-3.6
			c0-1.4,0.7-3.8,4.7-3.8c3.7,0,4.8,2.5,4.8,4h-2.5c-0.1-0.5-0.3-1.8-2.5-1.8c-1,0-2.1,0.4-2.1,1.5c0,1,0.8,1.2,1.3,1.3l3,0.7
			c1.7,0.4,3.2,1.1,3.2,3.3c0,3.7-3.7,4-4.8,4c-4.5,0-5.2-2.6-5.2-4.1H964.4z"/>
		<path d="M975.8,86.4c0,0.7,0.4,2,2.6,2c1.2,0,2.6-0.3,2.6-1.6c0-1-0.9-1.2-2.2-1.5l-1.3-0.3c-2-0.5-3.9-0.9-3.9-3.6
			c0-1.4,0.7-3.8,4.7-3.8c3.7,0,4.8,2.5,4.8,4h-2.5c-0.1-0.5-0.3-1.8-2.5-1.8c-1,0-2.1,0.4-2.1,1.5c0,1,0.8,1.2,1.3,1.3l3,0.7
			c1.7,0.4,3.2,1.1,3.2,3.3c0,3.7-3.7,4-4.8,4c-4.5,0-5.2-2.6-5.2-4.1H975.8z"/>
		<path d="M994.3,80.1h-6.5v2.6h6v2.2h-6V88h6.8v2.2h-9.3V77.9h9V80.1z"/>
		<path d="M1001.8,90.1h-2.6V80.1h-3.7v-2.2h9.9v2.2h-3.7V90.1z"/>
		<path d="M1008.9,86.4c0,0.7,0.4,2,2.6,2c1.2,0,2.6-0.3,2.6-1.6c0-1-0.9-1.2-2.2-1.5l-1.3-0.3c-2-0.5-3.9-0.9-3.9-3.6
			c0-1.4,0.7-3.8,4.7-3.8c3.7,0,4.8,2.5,4.8,4h-2.5c-0.1-0.5-0.3-1.8-2.5-1.8c-1,0-2.1,0.4-2.1,1.5c0,1,0.8,1.2,1.3,1.3l3,0.7
			c1.7,0.4,3.2,1.1,3.2,3.3c0,3.7-3.7,4-4.8,4c-4.5,0-5.2-2.6-5.2-4.1H1008.9z"/>
	</g>
</g>
<g transform="translate(-0.5 -0.5)" class="st2">
	<g class="st2">
		<path class="st10" d="M1053.7,218h-0.6l2.3-7.1h0.6L1053.7,218z"/>
		<path class="st10" d="M1060.1,217.9h-0.9v-6.7h0.9v3.3l3.3-3.3h1.3l-2.8,2.7l2.9,4h-1.2l-2.4-3.4l-1.1,1V217.9z"/>
		<path class="st10" d="M1065.3,214.4c0-1.2,0.8-1.6,2-1.6c0.4,0,1.8,0.1,1.8,1.4v2.8c0,0.2,0.1,0.3,0.3,0.3c0.1,0,0.2,0,0.3,0v0.6
			c-0.1,0-0.3,0.1-0.5,0.1c-0.7,0-0.8-0.4-0.9-0.8c-0.3,0.3-0.8,0.8-1.8,0.8c-0.9,0-1.5-0.6-1.5-1.4c0-0.4,0.1-1.4,1.5-1.5l1.4-0.2
			c0.2,0,0.4-0.1,0.4-0.6c0-0.5-0.4-0.8-1.2-0.8c-0.9,0-1.1,0.6-1.1,0.9H1065.3z M1068.3,215.4c-0.1,0.1-0.3,0.2-1.4,0.3
			c-0.4,0.1-1,0.2-1,0.8c0,0.5,0.3,0.9,0.9,0.9c0.8,0,1.5-0.5,1.5-1.2V215.4z"/>
		<path class="st10" d="M1074.5,217.9h-0.8v-3c0-0.9-0.2-1.3-1-1.3c-0.5,0-1.3,0.3-1.3,1.6v2.7h-0.8V213h0.8v0.7h0
			c0.2-0.3,0.6-0.8,1.5-0.8c0.8,0,1.7,0.3,1.7,1.7V217.9z"/>
		<path class="st10" d="M1075.7,214.4c0-1.2,0.8-1.6,2-1.6c0.4,0,1.8,0.1,1.8,1.4v2.8c0,0.2,0.1,0.3,0.3,0.3c0.1,0,0.2,0,0.3,0v0.6
			c-0.1,0-0.3,0.1-0.5,0.1c-0.7,0-0.8-0.4-0.9-0.8c-0.3,0.3-0.8,0.8-1.8,0.8c-0.9,0-1.5-0.6-1.5-1.4c0-0.4,0.1-1.4,1.5-1.5l1.4-0.2
			c0.2,0,0.4-0.1,0.4-0.6c0-0.5-0.4-0.8-1.2-0.8c-0.9,0-1.1,0.6-1.1,0.9H1075.7z M1078.8,215.4c-0.1,0.1-0.3,0.2-1.4,0.3
			c-0.4,0.1-1,0.2-1,0.8c0,0.5,0.3,0.9,0.9,0.9c0.8,0,1.5-0.5,1.5-1.2V215.4z"/>
		<path class="st10" d="M1081.8,217.9h-0.8v-6.7h0.8V217.9z"/>
	</g>
</g>
<g transform="translate(-0.5 -0.5)" class="st2">
	<g class="st2">
		<path class="st10" d="M1055.2,377.8h-0.6l2.3-7.1h0.6L1055.2,377.8z"/>
		<path class="st10" d="M1061.6,377.7h-0.9v-6.7h0.9v3.3l3.3-3.3h1.3l-2.8,2.7l2.9,4h-1.2l-2.4-3.4l-1.1,1V377.7z"/>
		<path class="st10" d="M1066.8,374.2c0-1.2,0.8-1.6,2-1.6c0.4,0,1.8,0.1,1.8,1.4v2.8c0,0.2,0.1,0.3,0.3,0.3c0.1,0,0.2,0,0.3,0v0.6
			c-0.1,0-0.3,0.1-0.4,0.1c-0.7,0-0.8-0.4-0.9-0.8c-0.3,0.3-0.8,0.8-1.8,0.8c-0.9,0-1.5-0.6-1.5-1.4c0-0.4,0.1-1.4,1.5-1.5l1.4-0.2
			c0.2,0,0.4-0.1,0.4-0.6c0-0.5-0.4-0.8-1.2-0.8c-0.9,0-1.1,0.6-1.1,0.9H1066.8z M1069.8,375.2c-0.1,0.1-0.3,0.2-1.4,0.3
			c-0.4,0.1-1,0.2-1,0.8c0,0.5,0.3,0.9,0.9,0.9c0.8,0,1.5-0.5,1.5-1.2V375.2z"/>
		<path class="st10" d="M1076,377.7h-0.8v-3c0-0.9-0.2-1.3-1-1.3c-0.5,0-1.3,0.3-1.3,1.6v2.7h-0.8v-4.9h0.8v0.7h0
			c0.2-0.3,0.6-0.8,1.5-0.8c0.8,0,1.7,0.3,1.7,1.7V377.7z"/>
		<path class="st10" d="M1077.2,374.2c0-1.2,0.8-1.6,2-1.6c0.4,0,1.8,0.1,1.8,1.4v2.8c0,0.2,0.1,0.3,0.3,0.3c0.1,0,0.2,0,0.3,0v0.6
			c-0.1,0-0.3,0.1-0.4,0.1c-0.7,0-0.8-0.4-0.9-0.8c-0.3,0.3-0.8,0.8-1.8,0.8c-0.9,0-1.5-0.6-1.5-1.4c0-0.4,0.1-1.4,1.5-1.5l1.4-0.2
			c0.2,0,0.4-0.1,0.4-0.6c0-0.5-0.4-0.8-1.2-0.8c-0.9,0-1.1,0.6-1.1,0.9H1077.2z M1080.2,375.2c-0.1,0.1-0.3,0.2-1.4,0.3
			c-0.4,0.1-1,0.2-1,0.8c0,0.5,0.3,0.9,0.9,0.9c0.8,0,1.5-0.5,1.5-1.2V375.2z"/>
		<path class="st10" d="M1083.3,377.7h-0.8v-6.7h0.8V377.7z"/>
	</g>
</g>
<g transform="translate(-0.5 -0.5)" class="st2">
	<g class="st2">
		<path class="st10" d="M1091.1,262.8h-0.6l2.3-7.1h0.6L1091.1,262.8z"/>
		<path class="st10" d="M1100.6,257.8c0-1-0.9-1.4-1.7-1.4c-0.6,0-1.5,0.2-1.5,1.2c0,0.6,0.4,0.8,0.8,0.9l1.9,0.4
			c0.9,0.2,1.5,0.7,1.5,1.8c0,1.6-1.5,2-2.6,2c-1.2,0-1.7-0.4-2-0.6c-0.6-0.5-0.7-1.1-0.7-1.7h0.9c0,1.2,1,1.6,1.9,1.6
			c0.7,0,1.8-0.2,1.8-1.1c0-0.7-0.3-0.9-1.4-1.2l-1.4-0.3c-0.4-0.1-1.4-0.4-1.4-1.6c0-1,0.7-2.1,2.3-2.1c2.4,0,2.6,1.4,2.6,2.1
			H1100.6z"/>
		<path class="st10" d="M1103.7,258.4v3.2c0,0.4,0.3,0.4,0.5,0.4h0.3v0.6c-0.3,0-0.5,0.1-0.6,0.1c-0.8,0-1-0.5-1-1v-3.2h-0.7v-0.7
			h0.7v-1.4h0.8v1.4h0.8v0.7H1103.7z"/>
		<path class="st10" d="M1105.3,259.2c0-1.2,0.8-1.6,2-1.6c0.4,0,1.8,0.1,1.8,1.4v2.8c0,0.2,0.1,0.3,0.3,0.3c0.1,0,0.2,0,0.3,0v0.6
			c-0.1,0-0.3,0.1-0.5,0.1c-0.7,0-0.8-0.4-0.9-0.8c-0.3,0.3-0.8,0.8-1.8,0.8c-0.9,0-1.5-0.6-1.5-1.4c0-0.4,0.1-1.4,1.5-1.5l1.4-0.2
			c0.2,0,0.4-0.1,0.4-0.6c0-0.5-0.4-0.8-1.2-0.8c-0.9,0-1.1,0.6-1.1,0.9H1105.3z M1108.3,260.1c-0.1,0.1-0.3,0.2-1.4,0.3
			c-0.4,0.1-1,0.2-1,0.8c0,0.5,0.3,0.9,0.9,0.9c0.8,0,1.5-0.5,1.5-1.2V260.1z"/>
		<path class="st10" d="M1114.5,262.6h-0.8v-3c0-0.9-0.2-1.3-1-1.3c-0.5,0-1.3,0.3-1.3,1.6v2.7h-0.8v-4.9h0.8v0.7h0
			c0.2-0.3,0.6-0.8,1.5-0.8c0.8,0,1.7,0.3,1.7,1.7V262.6z"/>
		<path class="st10" d="M1119.8,262.6h-0.8v-0.7h0c-0.4,0.7-0.9,0.8-1.4,0.8c-1.7,0-2.2-1.6-2.2-2.7c0-1.4,0.7-2.4,2-2.4
			c0.9,0,1.3,0.6,1.5,0.8l0-0.1v-2.5h0.8V262.6z M1117.6,262c0.5,0,1.3-0.3,1.3-1.6c0-0.8-0.1-2.1-1.3-2.1c-1.3,0-1.3,1.2-1.3,1.8
			C1116.3,261.2,1116.7,262,1117.6,262z"/>
		<path class="st10" d="M1122.9,257.5c1.6,0,2.3,1.3,2.3,2.6c0,1.3-0.7,2.6-2.3,2.6s-2.3-1.3-2.3-2.6
			C1120.7,258.9,1121.4,257.5,1122.9,257.5z M1122.9,262c1.2,0,1.4-1.2,1.4-1.9c0-0.7-0.2-1.9-1.4-1.9c-1.2,0-1.4,1.2-1.4,1.9
			C1121.5,260.8,1121.8,262,1122.9,262z"/>
		<path class="st10" d="M1127.1,262.6h-0.8v-4.9h0.8v0.8h0c0.3-0.6,0.8-1,1.4-1c0.1,0,0.1,0,0.2,0v0.9h-0.3c-0.8,0-1.3,0.6-1.3,1.3
			V262.6z"/>
		<path class="st10" d="M1130.7,258.4v3.2c0,0.4,0.3,0.4,0.5,0.4h0.3v0.6c-0.3,0-0.5,0.1-0.6,0.1c-0.8,0-1-0.5-1-1v-3.2h-0.7v-0.7
			h0.7v-1.4h0.8v1.4h0.8v0.7H1130.7z"/>
	</g>
</g>
<g transform="translate(-0.5 -0.5)" class="st2">
	<g class="st2">
		<path class="st10" d="M1134.3,307.2h-0.6l2.3-7.1h0.6L1134.3,307.2z"/>
		<path class="st10" d="M1140,304.9v0.5c0,0.8,0.4,1.1,1,1.1c0.8,0,1.1-0.5,1.1-1.2v-5h0.9v4.9c0,1.6-1,2-1.9,2
			c-1.6,0-1.9-1-1.9-1.7v-0.7H1140z"/>
		<path class="st10" d="M1144.1,303.7c0-1.2,0.8-1.6,2-1.6c0.4,0,1.8,0.1,1.8,1.4v2.8c0,0.2,0.1,0.3,0.3,0.3c0.1,0,0.2,0,0.3,0v0.6
			c-0.1,0-0.3,0.1-0.4,0.1c-0.7,0-0.8-0.4-0.9-0.8c-0.3,0.3-0.8,0.8-1.8,0.8c-0.9,0-1.5-0.6-1.5-1.4c0-0.4,0.1-1.4,1.5-1.5l1.4-0.2
			c0.2,0,0.4-0.1,0.4-0.6c0-0.5-0.4-0.8-1.2-0.8c-0.9,0-1.1,0.6-1.1,0.9H1144.1z M1147.1,304.6c-0.1,0.1-0.3,0.2-1.4,0.3
			c-0.4,0.1-1,0.2-1,0.8c0,0.5,0.3,0.9,0.9,0.9c0.8,0,1.5-0.5,1.5-1.2V304.6z"/>
		<path class="st10" d="M1153.3,307.1h-0.8v-3.2c0-0.7-0.2-1.1-1-1.1c-0.7,0-1.4,0.4-1.4,1.6v2.7h-0.8v-6.7h0.8v2.5h0
			c0.2-0.3,0.6-0.8,1.4-0.8c0.8,0,1.7,0.3,1.7,1.7V307.1z"/>
		<path class="st10" d="M1155.5,307.1h-0.8v-4.9h0.8v0.8h0c0.3-0.6,0.8-1,1.4-1c0.1,0,0.2,0,0.2,0v0.9h-0.3c-0.8,0-1.3,0.6-1.3,1.3
			V307.1z"/>
	</g>
</g>
<g transform="translate(-0.5 -0.5)" class="st2">
	<g class="st2">
		<path class="st10" d="M1171.1,351.4h-0.6l2.3-7.1h0.6L1171.1,351.4z"/>
		<path class="st10" d="M1182.1,351.2v-4c0-0.2,0-1,0-1.7h0l-1.9,5.6h-0.9l-1.9-5.6h0c0,0.6,0,1.5,0,1.7v4h-0.9v-6.7h1.3l1.9,5.7h0
			l1.9-5.7h1.3v6.7H1182.1z"/>
		<path class="st10" d="M1186.3,346.2c1.6,0,2.3,1.3,2.3,2.6c0,1.3-0.7,2.6-2.3,2.6s-2.3-1.3-2.3-2.6
			C1184,347.5,1184.7,346.2,1186.3,346.2z M1186.3,350.6c1.2,0,1.4-1.2,1.4-1.9c0-0.7-0.2-1.9-1.4-1.9s-1.4,1.2-1.4,1.9
			C1184.8,349.4,1185.1,350.6,1186.3,350.6z"/>
		<path class="st10" d="M1193.5,351.2h-0.8v-3c0-0.9-0.2-1.3-1-1.3c-0.5,0-1.3,0.3-1.3,1.6v2.7h-0.8v-4.9h0.8v0.7h0
			c0.2-0.3,0.6-0.8,1.5-0.8c0.8,0,1.7,0.3,1.7,1.7V351.2z"/>
		<path class="st10" d="M1194.7,347.8c0-1.2,0.8-1.6,2-1.6c0.4,0,1.8,0.1,1.8,1.4v2.8c0,0.2,0.1,0.3,0.3,0.3c0.1,0,0.2,0,0.3,0v0.6
			c-0.1,0-0.3,0.1-0.4,0.1c-0.7,0-0.8-0.4-0.9-0.8c-0.3,0.3-0.8,0.8-1.8,0.8c-0.9,0-1.5-0.6-1.5-1.4c0-0.4,0.1-1.4,1.5-1.5l1.4-0.2
			c0.2,0,0.4-0.1,0.4-0.6c0-0.5-0.4-0.8-1.2-0.8c-0.9,0-1.1,0.6-1.1,0.9H1194.7z M1197.7,348.7c-0.1,0.1-0.3,0.2-1.4,0.3
			c-0.4,0.1-1,0.2-1,0.8c0,0.5,0.3,0.9,0.9,0.9c0.8,0,1.5-0.5,1.5-1.2V348.7z"/>
		<path class="st10" d="M1200.9,347v3.2c0,0.4,0.3,0.4,0.5,0.4h0.3v0.6c-0.3,0-0.5,0.1-0.6,0.1c-0.8,0-1-0.5-1-1V347h-0.7v-0.7h0.7
			V345h0.8v1.4h0.8v0.7H1200.9z"/>
	</g>
</g>
</svg>
